<mxfile host="app.diagrams.net" modified="2023-09-25T06:08:03.749Z" agent="Mozilla/5.0 (Windows NT 10.0; Win64; x64) AppleWebKit/537.36 (KHTML, like Gecko) Chrome/117.0.0.0 Safari/537.36" etag="osfOhNbDgA-wKZNorcAI" version="21.8.2" type="github">
  <diagram name="Page-1" id="uu6Za6JqZbUzWyNDbrX9">
    <mxGraphModel dx="1268" dy="898" grid="1" gridSize="10" guides="1" tooltips="1" connect="1" arrows="1" fold="1" page="1" pageScale="1" pageWidth="850" pageHeight="1100" math="0" shadow="0">
      <root>
        <mxCell id="0" />
        <mxCell id="1" parent="0" />
        <mxCell id="jbXzSBFCxgIyS97Zw1_5-32" value="" style="group" vertex="1" connectable="0" parent="1">
          <mxGeometry x="570" y="40" width="130" height="190" as="geometry" />
        </mxCell>
        <mxCell id="jbXzSBFCxgIyS97Zw1_5-33" value="" style="rounded=0;whiteSpace=wrap;html=1;" vertex="1" parent="jbXzSBFCxgIyS97Zw1_5-32">
          <mxGeometry width="130" height="190" as="geometry" />
        </mxCell>
        <mxCell id="jbXzSBFCxgIyS97Zw1_5-34" value="" style="image;sketch=0;aspect=fixed;html=1;points=[];align=center;fontSize=12;image=img/lib/mscae/Docker.svg;" vertex="1" parent="jbXzSBFCxgIyS97Zw1_5-32">
          <mxGeometry x="80" y="10.003499999999999" width="41.363" height="33.915" as="geometry" />
        </mxCell>
        <mxCell id="jbXzSBFCxgIyS97Zw1_5-28" value="" style="group" vertex="1" connectable="0" parent="1">
          <mxGeometry x="280" y="40" width="130" height="190" as="geometry" />
        </mxCell>
        <mxCell id="jbXzSBFCxgIyS97Zw1_5-27" value="" style="rounded=0;whiteSpace=wrap;html=1;" vertex="1" parent="jbXzSBFCxgIyS97Zw1_5-28">
          <mxGeometry width="129.99999999999997" height="190" as="geometry" />
        </mxCell>
        <mxCell id="jbXzSBFCxgIyS97Zw1_5-25" value="" style="image;sketch=0;aspect=fixed;html=1;points=[];align=center;fontSize=12;image=img/lib/mscae/Docker.svg;" vertex="1" parent="jbXzSBFCxgIyS97Zw1_5-28">
          <mxGeometry x="80" y="10.003499999999999" width="38.86449999999999" height="31.872499999999995" as="geometry" />
        </mxCell>
        <mxCell id="jbXzSBFCxgIyS97Zw1_5-10" style="edgeStyle=orthogonalEdgeStyle;rounded=0;orthogonalLoop=1;jettySize=auto;html=1;entryX=0;entryY=0.5;entryDx=0;entryDy=0;" edge="1" parent="1" source="jbXzSBFCxgIyS97Zw1_5-1" target="jbXzSBFCxgIyS97Zw1_5-8">
          <mxGeometry relative="1" as="geometry" />
        </mxCell>
        <mxCell id="jbXzSBFCxgIyS97Zw1_5-1" value="" style="sketch=0;points=[[0,0,0],[0.25,0,0],[0.5,0,0],[0.75,0,0],[1,0,0],[0,1,0],[0.25,1,0],[0.5,1,0],[0.75,1,0],[1,1,0],[0,0.25,0],[0,0.5,0],[0,0.75,0],[1,0.25,0],[1,0.5,0],[1,0.75,0]];outlineConnect=0;fontColor=#232F3E;fillColor=#E7157B;strokeColor=#ffffff;dashed=0;verticalLabelPosition=bottom;verticalAlign=top;align=center;html=1;fontSize=12;fontStyle=0;aspect=fixed;shape=mxgraph.aws4.resourceIcon;resIcon=mxgraph.aws4.sqs;" vertex="1" parent="1">
          <mxGeometry x="300" y="103" width="90" height="90" as="geometry" />
        </mxCell>
        <mxCell id="jbXzSBFCxgIyS97Zw1_5-4" value="" style="group" vertex="1" connectable="0" parent="1">
          <mxGeometry x="120" y="100" width="170" height="96" as="geometry" />
        </mxCell>
        <mxCell id="jbXzSBFCxgIyS97Zw1_5-2" value="" style="image;aspect=fixed;perimeter=ellipsePerimeter;html=1;align=center;shadow=0;dashed=0;spacingTop=3;image=img/lib/active_directory/internet_cloud.svg;" vertex="1" parent="jbXzSBFCxgIyS97Zw1_5-4">
          <mxGeometry width="152.38153846153847" height="96" as="geometry" />
        </mxCell>
        <mxCell id="jbXzSBFCxgIyS97Zw1_5-3" value="&lt;font style=&quot;font-size: 14px;&quot; color=&quot;#ffffff&quot;&gt;Message is loaded&lt;/font&gt;" style="text;strokeColor=none;align=center;fillColor=none;html=1;verticalAlign=middle;whiteSpace=wrap;rounded=0;" vertex="1" parent="jbXzSBFCxgIyS97Zw1_5-4">
          <mxGeometry x="46.049704385752364" y="35.44615384615385" width="60.28059122849528" height="25.10769230769231" as="geometry" />
        </mxCell>
        <mxCell id="jbXzSBFCxgIyS97Zw1_5-5" style="edgeStyle=orthogonalEdgeStyle;rounded=0;orthogonalLoop=1;jettySize=auto;html=1;entryX=0;entryY=0.5;entryDx=0;entryDy=0;entryPerimeter=0;" edge="1" parent="1" source="jbXzSBFCxgIyS97Zw1_5-2" target="jbXzSBFCxgIyS97Zw1_5-1">
          <mxGeometry relative="1" as="geometry" />
        </mxCell>
        <mxCell id="jbXzSBFCxgIyS97Zw1_5-9" value="" style="group" vertex="1" connectable="0" parent="1">
          <mxGeometry x="450" y="103" width="113.5" height="122" as="geometry" />
        </mxCell>
        <mxCell id="jbXzSBFCxgIyS97Zw1_5-8" value="" style="shape=image;html=1;verticalAlign=top;verticalLabelPosition=bottom;labelBackgroundColor=#ffffff;imageAspect=0;aspect=fixed;image=https://cdn0.iconfinder.com/data/icons/long-shadow-web-icons/512/python-128.png" vertex="1" parent="jbXzSBFCxgIyS97Zw1_5-9">
          <mxGeometry width="71" height="71" as="geometry" />
        </mxCell>
        <mxCell id="jbXzSBFCxgIyS97Zw1_5-6" value="" style="outlineConnect=0;dashed=0;verticalLabelPosition=bottom;verticalAlign=top;align=center;html=1;shape=mxgraph.aws3.android;fillColor=#FFD44F;gradientColor=none;" vertex="1" parent="jbXzSBFCxgIyS97Zw1_5-9">
          <mxGeometry x="50" y="51" width="33.5" height="39" as="geometry" />
        </mxCell>
        <mxCell id="jbXzSBFCxgIyS97Zw1_5-24" value="&lt;h1&gt;&lt;font face=&quot;Tahoma&quot; style=&quot;font-size: 16px;&quot;&gt;ETL Script&lt;/font&gt;&lt;/h1&gt;" style="text;strokeColor=none;align=center;fillColor=none;html=1;verticalAlign=middle;whiteSpace=wrap;rounded=0;" vertex="1" parent="jbXzSBFCxgIyS97Zw1_5-9">
          <mxGeometry x="-16.5" y="92" width="100" height="30" as="geometry" />
        </mxCell>
        <mxCell id="jbXzSBFCxgIyS97Zw1_5-11" value="" style="image;html=1;image=img/lib/clip_art/computers/Database_128x128.png" vertex="1" parent="1">
          <mxGeometry x="590" y="98.5" width="80" height="80" as="geometry" />
        </mxCell>
        <mxCell id="jbXzSBFCxgIyS97Zw1_5-17" value="&lt;h1&gt;&lt;font face=&quot;Tahoma&quot; style=&quot;font-size: 16px;&quot;&gt;Postgres&lt;/font&gt;&lt;/h1&gt;" style="text;strokeColor=none;align=center;fillColor=none;html=1;verticalAlign=middle;whiteSpace=wrap;rounded=0;" vertex="1" parent="1">
          <mxGeometry x="600" y="195" width="60" height="30" as="geometry" />
        </mxCell>
        <mxCell id="jbXzSBFCxgIyS97Zw1_5-18" style="edgeStyle=orthogonalEdgeStyle;rounded=0;orthogonalLoop=1;jettySize=auto;html=1;" edge="1" parent="1" source="jbXzSBFCxgIyS97Zw1_5-8" target="jbXzSBFCxgIyS97Zw1_5-11">
          <mxGeometry relative="1" as="geometry" />
        </mxCell>
        <mxCell id="jbXzSBFCxgIyS97Zw1_5-20" value="" style="shape=image;verticalLabelPosition=bottom;labelBackgroundColor=default;verticalAlign=top;aspect=fixed;imageAspect=0;image=data:image/png,iVBORw0KGgoAAAANSUhEUgAAAMkAAADMCAYAAADZC4e2AAABhWlDQ1BJQ0MgcHJvZmlsZQAAKJF9kT1Iw0AcxV9bS1UqDnZoxSFDdbIgKuIoVSyChdJWaNXB5NIvaNKQpLg4Cq4FBz8Wqw4uzro6uAqC4AeIq4uToouU+L+k0CLGg+N+vLv3uHsHeJtVphg9E4Cimno6ERdy+VUh8Io+ROBHGBGRGVoys5iF6/i6h4evdzGe5X7uzzEgFwwGeATiOabpJvEG8cymqXHeJw6xsigTnxOP63RB4keuSw6/cS7Z7OWZIT2bnicOEQulLpa6mJV1hXiaOCorKuV7cw7LnLc4K9U6a9+TvzBYUFcyXKc5ggSWkEQKAiTUUUEVJmK0qqQYSNN+3MU/bPtT5JLIVQEjxwJqUCDafvA/+N2tUZyadJKCccD/Ylkfo0BgF2g1LOv72LJaJ4DvGbhSO/5aE5j9JL3R0aJHwOA2cHHd0aQ94HIHCD9poi7ako+mt1gE3s/om/LA0C3Qv+b01t7H6QOQpa6Wb4CDQ2CsRNnrLu/u7e7t3zPt/n4Abd9ypatWW+IAAAAGYktHRAD/AP8A/6C9p5MAAAAJcEhZcwAALiMAAC4jAXilP3YAAAAHdElNRQfnCRkFLgDqWDA5AAAAGXRFWHRDb21tZW50AENyZWF0ZWQgd2l0aCBHSU1QV4EOFwAAIABJREFUeNrsvXmUHVd97/vZu6rOfPr0PEndakmt0ZJsYVuODQ5DjJeBG2NMHnPCe3kXyEBeAivTXbm8wPuDZMFKXvICd60kkOlyMUNAJgZsAwFjW8i2sKzBmrsl9aCe5z6nz1BVe78/qk71qdPdUmuw3U6812rLap2h9t6/8fub4LX12nptvbZeW6+t61nitSN4bV1ufe1rX7t7Zmbmt7LZ7APZbDY2OTnJ7OwsxWKRWCxGIpEgkUgQi8WIx+Mkk8nB1tbW/+P973//j15jktfWf4j18MMPxy5evPjiuXPnNvf29jI2NsbExATT09M4joPWGq01AEopgODvAEKIJX+Wf2KxGI2NjTQ3N9Pc3Ex3dzfd3d3/8rGPfezDrzHJa+ua1ze/+c0dSql0NBo99sADDxRu5Gd/61vfWn/kyJGB8+fPc+nSJUZHR5mdnWV+fp5CoYDWGqVUiDFWRURCrPj6SqaxLItkMklNTQ1NTU10dnZy880386lPfUq8xiRXuR566KF7hoeHvzo9Pd1ULBYZHx9nYWEhuMSy1CpfjJSSTCZDTU0NNTU1xGIxamtr/6WhoeH/+ZVf+ZXetbCnf/zHf/xvfX19nx0cHKS3t5ehoSHm5+cplUrYto1SKvjRWmOaJpZlYVkWpmkSiURobGykqamJ2tpa6uvraWxsZOvWrQ9+8IMf3L/cd37lK19537lz5x46fPgwx44dY2JiIvgu13WXaIXrYYarIjqfaQBM0ySZTLJjxw7uuusu7rzzzo53v/vdg68xScX64he/+MOnn376nnPnzlEsFikUCmSz2YCALifVyr9fTtVHo1ESiQTxeJxUKkU8HqetrY09e/awdevWD//qr/7qv7zUe/vkJz+pDxw4wOTkJFNTU2Sz2RAjXC2BVv9IKQOGyWQy7N69m717937/+PHjbz948CDDw8PMzMzgOE7wnTeEaIRY9h6uZ0kpMU2T+vp62tvbufvuu/nrv/5r8Z+SSb70pS/9xfPPP//JZ599lp6eHorFIq7rBsQjpQxs3xuxZHmL0iMswzCQUiKEoLW1lR07drBx40Y2b948/slPfrL5er/vN3/zN/WBAwfo7e2lVCpVMEX5qNWKTxr+d7n868sfo5cykJQSwzBQSgX+xNUQfeXnlM9LaI8JpJRYlkUqlSIajWIYRqAFHcehVCpRLBZDjFPee/nvq32e8j6SySTveMc7uP/+++9473vf+9x/eCb52Mc+pg8ePMjQ0BCzs7O4rnvV0vR6NqhXIA4pJVJKEokENTU1pFIpbr75Zvbt27dqpvnSl770F//0T//wyfPnzzMxMYVt2yEt5/2/vGYmCZk5l9vQVWiC8r4ty6Kuro50Ok0ikaCtrY1t27bR2NxENBrFlAaWZVWiV1iWBUChUAi0/8LCAqVSCcuysG2byclJzp8/T39/P3Nzc+TzecbHx8nlcoG5t5q7tyyL+vp6du/ezXvf+94vfOQjH/md/1BM8uUvf/mz3/23R/7bc889x9jEeEi6lS+++s6r7d5FzS5Cal5rvUTtV6r+a2G+SjvZMAyam5vZtm0bN998M7fccsv7P/ShD32t8vV/8zd/8+y3vvWtfYcPHw5MqZUZQIUkZeX3lQk2tL9A8ehAmFQKlco/L7fX8mcaRtm/kaxfv56t3Vvo6Oigtd0zQdd1rCedTpNKJEmn01iW4WsWIzhrrTXz8/Oh76t+HqG97yw5dgAVW5bF2NgYzz//PMPDw/T19XHkyBGGh4exbXtVArOsWW699Vbe9773vawI2UvCJF/96lff/qUvfel7R44cYX52Dsd1VhR8EoFGg1g0hyzLwjC8y4nFPIe1pqY2cGJX8k8KhQK5XI5CoUA+nw9MAMdxcF13CaS5WolbRmWamprYtWsXXV1dPP3005w+fZr5+fnACV7ZlzCIxSJYlkU0GmXdunXBfhKJGNu3b6e1tZW6ujpM0/T2KAVKKbJz80xNTTE8PMzs7CwTExMUCgVs26ZUKjE5OcnExESwT9u2A0aPxWJkMhmPKbZu501vehNbtmymsbGRhrp6YrEY0qw4b7FongqhQxqtfGZzc3OXZ0qfSRThcy6bgEopFhYWWFhY4NKlS/zgBz/g8OHDXLx4kenpaRYWFkLnWS00DcOgtraWu+++m4cffli8Kpnk13/91/Xjjz/OyMjIZYmnLD0NwyAej9Pe3h5yrpubm0kmkySTSdrb2wNzoJJJqjVLPp9nbm6OYrFILpcjm80yNzfH2NgYZ3vOceHChQBVyucWQqhSmXmuZJ4ZhoWUEscphTVHxRsrmb2xsZH29nZ27drFnj17aGpqoru7m5qaGhKJRMCE0vSEQiZdE9qXq71nU44bMLpSCtu2yefzDA8Pc/78ecbGxujt7eX48ROMjIzQ1dXJW9/6VrZs2UJ3dzcNDQ3EYrFAKwR+iK7QWiHzbnnSyNTVBu/z/hT+uzx/spqBKom8WgPZts3MzAzT09OcPHmSI0eOcPDgQY4fP8709HTA8Mst0zTp6uriwQcf5HOf+5x4VTDJX/3VX/V84Qtf2Nzf3x+yyZfbXDqdprOzkx07dnDbbbexfv16tm/fTnt7O5FIJJBsQgjm5+dXRFUuZ2qVL0dr7RGXcrFtm2g0yuDgIOd7eunt7eX8+fOcOHGCsbExpqamKCzkPc2jV+s7hE8yEU+wfv16br75Zu644w62bt3Kjh07iMfjHjP4wqHymaWUAaHWZWrDexKEiLJ6v5UOsm3b2LbHTKYpiUaj5HK5kHm39F58TYFEiUUBIYQEJK4Oa5R0Jo6UFUyifJNYeu+TFRoFATJwpfSyzz87Oxt6/lwux5kzZ/jOd77DM888w7lz5wKUczmhFYt5mvhjH/vY137jN37j/WuWST760Y/q/fv3MzExseJmTNMklUpx7733ctttt7Fv3z46OztpbGwM0JLlmGBmZuYKjm+1o7tIeMtBxZlMJkRYuVyOoaEhxkfHPGl27CjHjx+np6eHXC4XaJtKxlvOfxZCkEwm+dVf/VXe8pa3sH37dhobGzFNM/Qs1TGe8u/KyF5tbe0V93clv6zyamdmppcBEQh8DY3E1eAKE4WgpBQaE6QJQrJQKGKXXAq2g+M4IIxA2AkhsEyJaUpiEZN02sCSYAjvx/T/NPB+lmOWxfslZJrNzs5y7tw5fvCDx9i/fz9DQyMrCl8pJU3NrXzwgx/kL//i82LNMck999yjn3rqqRD8V3kZlmWxYcMG3v72t/PAAw+wfft2amtriUQigc2/YhwEwczMrE8MBi6+bSAq/lzOB1BuNTUhhEdQlURYqW1QOtAguVyOs2fP8uyzz3LgwAHOnj3LwMAAuVwu8GtEBbJgGAZdXV3ce++9/N7v/R61tbUYhrF0PwIkBspneiW8X3raQvpMnAiZP3IFuz9Atqsk9eLZC4SA6enpZU0ghEEuX2I2V2JqPk+26HJpdILhsUlm5uaZzy6wUCyxkC/gOIpCycF1Nba//3JcwzQEhiGIRSIkEjHS8TiZmgR1mRrWtzXT3tpIfSZNfU2STNrCkGBJ/7kFzE3PgnaXYWKB67rYthdMfuihr/ONb3yD/v5+j1mXaEZJLB7nvrfdy8Pf3i/WDJO86U1v0gcPHgwxSLWDdc899/DhD3+Yffv2kUqlsCzrsmZTQCBa4AIzs1mUAoVEIXB9tMeThG6VRBEYElAuhhCefa09aVZmkkxteinBLbOUUpRKJaanpxkYGODo0aMcOnSIp59+mtHRUXK5HK7rkk6nueuuu/jt3/5tdu7cSTpTs+znaiRaCoQSuBqUNrC1oKQ0tpYoV6AQJJNRT7I7GiE1UUtiSJDSl8imxzimxCM4AfIyZs30rCepQ88jDIxIlCMnzvHDpw5zum+EmQIUHLAdhaMrhEgIVVyOZSv8OSHAN1MtKTBNScQyaKytYX1bE+tamuha18yOLRtpypjELMjPz2NoFymWRyXLjJDL5Xn22Wf5+7//Ww4ePEg2m11WuFqWxT333MOjjz4qXlEm2b9/f+azn/3szAsvvBBwdeWKxWK84Q1v4CMf+QhvectbyGQygXoOb8y7UiVAac+wUECxBAsFl/ncAuOT08xncxSKLvMLebK5PK5bDlCpkHkVj0epSSexDEE8GiMeixCPRMjUpEgkYkRMSSplYsqygw1Ghe0shKd1lmMYT6rZTExMcOzYMR577DEuXLjAfffdx3333Ud9fX3It0B7BKWExMVAYaCkZCFXYnRskomZeSam5xmbmmJieo7Z2Syz87ky2QXnZAiIRqOkkwlSyTjJZJxELEpdpoaWhlpam+tprM+QSceJWmAaHoOa0rvcmZlZcFVAhB7hS7Q0KGmLM31jPPXzEzx/opex6Ry2FrjCRCNviDUutEaiwC0hlUMialCfibF1Qzt7btrK+pY61rc2EbMkJi5SKIRyERVmdRlIcF2XXG6er33ta3zjG9/g1KlTFAqFZf3ejo4OPvvZz771RmQjX9Mp7Nu3Tx8+fHgJg0gpaWlp4cEHH+Q3fuM32LJlC6ZZdlTlkq/WQFFD0YH5IkxM5Tg/OMaLZ3sYGZkiW/ADVYU8+aKD7ajAPwkcXq0Du10IgZAaUxrEI1GiEYtIxCSZiNFYX0NLcxMdbc20NNRRl05Qk4qSjELMgohclMjeky3Fucq+g+u6zM/PMzc3Fzjklb6DR2ASB0leS3JF6Bua4nRvP719A4xOzDA3v0C+ZKO0wEX7mmTlJEFDikBamwIEiqhpUJNOkKlJ0VyfoXP9Oro62mlvrKWpNk5NHIoLC6AdpFYI1CIQgIESElsZ5EqKwdFpnjx0jEPHexmdLWBjglgGbveZH7ESsKFDpCWEAB8FlCjftFJEJEQjksbaGrrWNfMLt+5mS2czdQmDqHQxdJhRyvTlaRXPHP7nf/5nHnnkkWX9GiEEGzZs4BOf+MSp3/3d3935sjLJL//yL+vHHntsCTxnGAabNm3ij//4j3nXu95FJpPx1XQl8Xj2t6uhpGBi1qa3f4jT5/ro6RvmQv8w09kCtpa4wkJp7/1KeIRXrYWWA2s9qeMiMbxLAaTQCOERiYkmIqGuJkZbUwPtLfV0b+yks72JpvoMdekoEWvR+RSsbMoopUJxA09mGjgYLNiawdFJjp++wPMnztI/NE3REdhCorSB8vejRXg/agWAQi4joYUQvhHqIAUYaExcapNRNnW2cPOOrWzdvI6m+gwJS2CIwGjFEJ4f5qFaEkeblESEY2cH+dGB5zl8ope8A0paYa1ylUxyGSwSiUDiYAhFKgKb1jfyhtt2s2trF02ZOFGpQ5ql0hIpO/cPP/wwf/mXf8nIyMiSYK4QgsbGRn7/93+fP/qjPxIvC5N86EMf0vv37yeXyy1hkJ07d/IHf/AHPPDAA6RSqWWdcAXkHBgcL/Dc8bMcPPwivf3DFIoOjpYoTSCFCUi87KdczaP6mkDpcNReKF9TeIZdmbAilkHUNGhurGPzhnZ2bdtMd2crDZkYmaTEqnA2RQURaA2zs9OLKJGwmC/BxdEZnnjmOC+8eI6ZXB5bCZSWPhP5kOvl/LKqxM2ViFNr77S09vwXz2TUoF2kgKgB6XiUbd2d7Nyygd1bumisiZCwNBGcQFKXz1xJia1NJrMlnnzmKD84cJjhmSKOKDPKYubDcojZ5fazGJfRFfv3fSWhkFohcYlbkvamDG+6cy97t29gfWMaixJSe1poUfB6z5PP53n88cf5whe+wPHjx5dYN+UcvU996lPf/63f+q13XAuTGKt94ec+9zn9t3/7t0sYRErJrl27+O///b9z7733LoEwPeYQFDSMzysee+IFvvLtR/nBgcMMTGQpuCY2EVxMlDDRwkCLsuQS/mGKFdMtLsv7Qvhb9JAkjQQhUcJACRMXEweDkjbI24LxmRxnLwxw+MiLPH/0OOcu9DM7m6fkOCQiUeJRq+JJPPSoULS9zyDCeNbm0Z8e4l8feYIXzvSTdUxKyvTgVWGgyixWAQMvl2pTGewLfl8m0mpEQIggUKGFx4RKmChhUXIleVvTNzjKCy+e5MTpc0zPZUmla4gn0gjD8vaBRuAitYuBSyIq2dTVyfZtW5idnWJqchKl9Ip3sZrMhWBvlWJM+KoagfbvpORKZuZzHDt5hr6BS9RmakmmajDNSPB+UeWob9y4kV27djEwMMDw8PCSIHY2m+X48eNbvvCFL1zYv3//0ZeMSUZGRj596dKlJZvv7u7mU5/6FG984xuJRqPEYrEQg2gBc0U4cHSAf/72D/n+kz9neLqIKyNoEUELWSVpvEPQ5dPQPsMIvXxcoOLfV86T0Kx8vaLCSBBgGDhaMldw6R8a5+jJM4yNjLK9ewONtWmfJj0pqBHkijZZR3Dk3Chf/e4TPHnoFFN5Fy2jnklV8bxlyDuUdasDOlmR8T1i0kv2uOzry+fhIxNag5Ze3GMmV+LsxWGOn+ljfCZLPJ0hFotiGRJTesiUxzBgCk19Js6urRtpa2rg0qVh8kUbhVgB5VpdXhxCIKSsOv9FJkIINAZaGIzPLHDsdC9j01maGhuJxWJYEoRQyIq9m6ZJa2sre/fuZWFhgXPnzoU0ihCCubk5jh49+q4vf/nL/+PrX//6wg1nkne/+936wIEDSzi0paWF3/u93+Md73hHwByxWCyADkvAyKzL408d4X8+/Dhn+ico6phn5wrDk4Das0wDJgi0QLVW0MvWMawoYa9kkFUEB8uSW5d9J2GgMRAC2ptq+ZX738bureuJGh76VWa5goKxOZsnnj3BVx/5EecGpyiJCMpnflaRISB8ArnSa1d6/so9VJ9XpabxNLSJwmRuocT5/kucOtvD7HyWmkwt8UQSKQ20EAjhIlFYAmKmoHN9O/UN9UxNTDE7N4/W4pq1yhWZyH/m8h0UbE3f4BDnL1xESJOW1hZM01gEAipM/vr6el7/+tfT399Pb2/vEnqdmZnh9OnTfzA6OvqZG8okX/ziF3/45S9/eVO1mZVKpfj4xz/OBz7wAZLJZGB6xWIxEB6D9I8X+btvfp/v/vTnTGVdXGF5xKMr8xoWJWSgfsVSTXA1EvZqLmU5aezBlg5tdXH+z//tPn7xdRtJWj5uJSWugKKC3uEsX/7ao/zg4DGmcyrk5Kqy1LzSMwiumkGqnztMYFc4D5+4NZK5fIne/jGOnuyl5EKmvp5kPOrDxRq08mJPQtPaVMuWzRuYmZthbGLK87OErAhiXkG7XEHjK1+b60WPcvFZhcHUfJ6z5/uZzS3Q0tJMKh7FQHnaryKburm5mb179zI5Ocnp06eXMMrExAS33377py9duvSZG8YkxWLxX86cObMkE/N1r3sdf/iHf0hjY2PokqKxOCXgwkief/rm9/npC6fJOSYKy0/wuTbJ/3IuA4eoKPLut72Jt955E5kYvoPs7bMI9Fya53/t/wHPHD9PzvYkNNK4aoznFVlCeP6LMHG0QTZf4sLFAUbHJqirryNTW+vdlRAI5TnUplDUpBLs3LGDkuPQ1zeAUnqRkC+bIrOMhlsBE1uCKFU8q+1qBodHmJ6bp73VS4A1pCwb9gghiMfj1NbWctNNN3H27Fn6+/tDjKK1ZmxsjA984AOfPnbs2Geum0n+4i/+Yuahhx6K5fN5hDACZ7Wjo4P/+9N/yq7du/yHXIzkimiMCyM5/vof/pXnTvRhK8vLBQoOcm0ziNAaUxV4y76dfPBdb6ExCVJ5MLKSgqKCM/0z/I+vPMKhE30UtYnCWIJWlW37Nd9rww8ullzN8NgUL7zYQzZv01BfRzIR82/O91WkoLkhwc4tm4gn4vRd7KdQctDCvGLy6ZU0XOCC+pq4rKFUhWZRCBwXhkYm6b0wSGvbOmprEphSBwq5bO7X1taye/duent76evrC8HDSikGBwf58z//8/c+9thjX7wuJsnn83/W09NTkQskME2D+++/n/e8970kEokKtEKiZITJPHzt3/6dnx29QJEYymeuKyNSa4BecBGqyLYNzXz4wXvY2JrEAoSfaGQDZwfn+Mevf5/DpwcoEvOc4pVMn1cDk1T4AC4muaJN74WLTE5O0dbaRjqdRPpWoYEiGY8Tj0JHezuGaXG+r5+S7aAxgnO4nnsW2jdRy2kq4dAkro8STs1k6e/vp7G+lsaGekw/PScWiwamV319PevXr+e5555jamoqZA0Vi0UmJiaahoaGPnPNTPJXf/VXPd/85jfr8/n8IlYloLW1lc9//vOsa28PnOxyQGrO1jz8w0M8+tRhCsqDPT3n1FgiRa6snl8uzbGILhmqRFsmym99+FfYu62JiJ/aoYSXR3ZpwuaL//M7PHfiIq6MoaVxBfPiVdSxSUuEFAFwMTg8wfHTPV53lroaItLzP+LxKAJBLAJdne2kkyn6+/vJ2y5Ky1X7V5XnfjmNIzxiWaQVH+TQwmR6fp6TZ3ppX7eeloYMltTEfSYBhWFIWlpa6ezs5Nlnn2V2djZEf9PT03z+85//r48//vj/e01Mkkwm//ro0aMh7ovFYrzvfe/j7W9/O5FIZFF9CYOikhw/O8S3Hj/IdF57NnoZvRJidfDlK6I9PDY3gGRE87a7X8e9d99E0gRTezepEEzl4FuPP8VPDp2iIKIoIfmP1bbMM6W1b9ZoESG7UORC30VMI0JraysRyyAZj+CBtIKYBW1tLVimxYWLg+RLpZBGWVUUW1yZeapppQwVI0wKJYfh0TE621uoq6shETd9vNMz3iKRKC0tLQwPD/PCCy8sceSTyWTNyZMnP3NNTJLL5T5dyXlCCLZv387H/6/foXPDhhBOrYTF0IzDQ4/8mN6RGVyswEav9kEWs0WvEN+4gZqifOCKcMS8/F+JwhQuN21s5wPvfDOttRHPzPJfseDCD585zb9+/ynmSxolzCsyyFJodq3zSFXKjxBoKcgVHM72XsR2NevWrSOTjmAEAUhB3IKOjnYSyRp6ei6QLzkevH/FFb5/5actiYBLlqJfSutFutOemtfCIDufpW9wgG1bttFYH8cMUMXFngWNjY08+eSTTE5OhmgRYHx8/DNXetIl68/+7M/06OjoEkTrzjvvZNu2bUGBVLkuoeAKfvbCaU6cH8ZRxmVTLtYi0QgUcWnz5tfvpaMlRSSQQ14s5GTvKI/86ABTeRdHW6vSIK8qBllpDxjYWMyVDH7w1GG+/t2fcGnKoeSfjR/2IxODe+7cyX95yx0kDQepSkH6yY2In1Sm4len6mghsDG5ODLH//q3H3Lm4hRFDRUVP5imyYYNG7jrrrtC5d9aa4aHh/m7v/u7v7tqTaKU+vT58+dDTJJIJPjMZz7DTTtvIpVMEo/HicbiGNEYfWNZHvq3JxifdTw7fTXEcY3xjWu0pwJ7VlQHwYTGFA63dLfyzntfT1Tb2IUFCoUiuaJicKrI1/7t3zneM0xJR/xg238gM+uKGt3TtSVXMzg0zMx8jta2dQhlUyrkKRbylAolUIqW5gZsR9HXN4Dr+zbV5tNi5L3a99ChBNIg88J/j6yOOVW8XwuBg2B8fILR0RG6N3cjlEOp4DUFKRQKKKWYmJjgmWeeoVAoBM/hui719fW3Hjly5DNXpUkuXry4RIvceuutrFu3Lqgo9MwsyDpw8OfHGRidRhvWZbXIK0IDyzR3rpSVAkV9KsJb795HOgJor/JOaUHBFRw53c/zJy5QVHIJg7zUPcPWzBkKr8akoCL85OAxvrL/B4zNO9jCh/e1i1Ql6pMm97/1Lu64eStRqTC0uyQCsmzy5g3BJQ2KyuTo2QF+dvgUBce7w/L3mabJbbfdFmSnV2YTDwwMXNEwXBIbqa5Vj0Qi3Hrr7XR2diHlIqTraBiayPPkoePYrlcshJbhn1cc3RSXNbMMVeLmnZvZsaWTiLARykUDrjAYm8nxk2deYM72kuzVMp+9KNA019Ux7uVE80Luh1o27b1cALdIB94ZFHWUA8+f5hvf+ynjWUXJr58RKAxcGhOSB+97Pbu3rCPip7d4MdirOx8tqru4hJ9rKSFrtDTIK4snfnaEkYl5L37FYhOMVCpFfX19tdVEdU7iFZmkp6cnU1ntJYSgqamJvXv3Eo1GQzLYUXDs1EUGhqe8utJXG56jXBKm4q5b95COmd6RCo0SkqyjeebwSXr6hnGJrDkN+UoIGU+jGBS1xVOHTvLdHz9L1pa4wiNGQztEKLGhpZb3vOMeWuqiGLjL+icvhRbWSFwiDI1Pc35gGFsvFvuVa0vuvPPOUP8BrfXVM8nx48eXhPFTqRQbN27AMMrZr56pNb+gOXKqh5KwcAOjU4V/1thFiwp0RGrF1q5WNq1rwNCOl7wowMVgZLLAT545wkJRBQxSbr5DRXntosR7dcRFlkro1Uv4wETBJOua/OTZY/zoZ0eZK3rlyWV9EzNctnfW8l/euI9UBIR2fe11/ecjV/IRKkorsgWbF89epKQtP2t50YFvaWlZYl1crr/Xskxy7NixUAjfNE127dpFe3t7RVKgV8/UNzTG6d5+tBmrKMpZg4SxTFtOgSJmSt5w283Uxg2EVkFcZ8FRPHPkFH0jM2hpvWpQupfbR5nKOXz335/hmWPnKLiGn34EqBKWKnLXbTu4+/ZdGKrgmV0vkw+nMLg0MkHBUX5tkk/sUtLW1haK8ZXX/v37M6tikq9+9atvL5VK4RdIyYYNG2hubg76R7lAwYVTPX3MzC+gtJfdo9Ywo5ThQ+VnuEpdoqOtnm0b24kIG4nXj9YVBpMzeQ4dOw1WMtjToi18BY2xRnyxlW35as2xmDVV+ftluxKEgAuPUUbnbR7+4UFO949TwMIVJkKDxKU2bvK2N97GxpYUqOLLRh0KzdRsjvlcsaK5nkfL3d3dNDc3h7LAtdaUSqVtq2KSY8eOfa+6/DEej7N58+agk3j5mPM29FwcpOSybCHOWkN+KnsACxxMHG7dvY32xpoMLFRZAAAgAElEQVSgpY0SkpJrcuxUL4Oj07iYFUHR14aCLdHKGLhEuDg6w0OP/JBLk1lc31kWKEzhsL4xyfvvv5emdAyJc8PiJ5c1j6TJ5Owck7PZJXSZSCSoq6tb0iSwVCptXxWTvPjii0uIO51Os2fPnqCBdXll84qBoXGUXqxIl1VtYNbiklpgaEVdKsItN23xWvCUTQFhknUEh46eoeiG69CFXqVBuYZ8seVt+ZU04bX5VFoIkFFOnB/lx8+cIFciaNwhtSKCw47N6/iFvTuwlL1II1qilbgianUtmlkDjgvzuQU/xYaQ+1AJQJVp1bbtTatikmrot9zQev369aFWna6G0ck5RiamX52IDZqN7Y001cYxKzofKiQXByc4fX5w+XY6r60VzBuJMpL86Onnefr5kxRcwy/I8mpRMgmT+964j80d9UjtBM0fKgXpjTTFhDAQwqBoO8G0gkqaru4a6jciXJ25Vd3oS2sdtCRdlBwKV0Pf4ChFmwqH/dUSJ9BEDMlNW7s8hx03gA9LrubYmfOUiPjtjF5bq9UmjoK5osujPz3E4GQBF8urL0JhYNNWF+Gtr99LJm5gCLXIKHp5YrzehAzlt46VUi7xsZfrO20YxsSqmKR6QEskEuGWW24JNXcAiePC4PAYjt+J5FV0nQjtUlcTZ3NnG5b0Wtl4TaMl03MFTvZc9GsW5GvUf3WOAAqL/rEsjz51iLmiwtWLZlfccLnjlu3s3rEJQzgg3BBDvBR+U3WD7cp5M9VhgUQi8eMrMsm3v/3tplwutyQdZfPmzUsgs5IL45NTuCFEa+3HCYQGKVxaGuvY2NmGKRYb5zkYXBqbYmRs2mf+19a1mF02Js8fP8eL5wYoYQZml4Emk4jwxn17qIlojHKL2qq4TRDpL//+Gny8MgNUz42snCtZ/fp4PP70FZlkenr6E8v1VU2n02GVpQULuSLz2YJXZPNqEnZ+e83NXetIxSwMP3dLIShpg6MnzjCfL6Fc/tNG2K/b7MJgfDbP9374FFMLrl+pA2gXQ5fY2tXK7q2dXkHbS4x0VZtV1SP1KteDDz44fkUmyefzb6iOPHrjyhKLcJlvwc9nC8wv5C8P866ReEEYNVFETc3WrvXeTspd6aWBrQ1OnL2ArTRUzS98bV0dLKIwOD0wzlM/P0XBFYHfKgVkYvCGfXtIx00MoZcwykoR9RXRr8toE9M0QyUL5YFO1UOBrnTXwfPYtr2xmugjkQjpdHoJvJbN58kvFIOBLq8aTSI0mVSUda0NyAqQwVEwMDLJ+GwuQLX+s2T43lD2KGeHY1JUEX72/Akujc96raSQCOVi4XBTdydbN61Du4Ub/t3BMyiFZVnBwKbyKk8HWO69V2SSQqGwvvLDhBBEo1FSqVQwUkAIr8S4VCpRKJVCHQrLaESASqyReEGlZJICOlqaSEUXm2njNxY4PzDMQsGtQLU0rymTa3GYvfw3JSz6hsZ49ugZFlwDLY3AN0lFDd6472ZqIgKpqwgWw4uhrKBhroR6aX9gk9QKy5ChCtpKbVK5lk4XW5lJlvxjPB6v6A5PMNzFdhSuUq86CSe1Yl1rA3FLBgettaboaC6NTJJXi3MDX9Mm13fWWgjyDhw8fIKJuRJO2fTWLiYuWza0sHPzugCCL7/3Ws+8UsB7zUc08ag3EqNSU5RHZyyCct64kFUxyXLDG6PRaMAk0pesroCiXaLo2FVOW/hnLUm3cvf1iGWwYX0b8YiBkATDbKbm5untG0IL0/ejNK+6bidr5rwJzk3ICBeHp3nmyClK9iK5CVzqkyZvvHMvyagZzC/xsh48C0QirgoaDnLzAI1LKhknnYovEXZKKYrFYsBUQojVM0l10KXs+EQikRAioDVeQ7JXiZStlCKmgPqapDenw2+P6QDz2Twj4xNeOsVrfHEDTC7f/tcCbSZ45ufHGZ1azOsy0MSkYlf3Bja0NyO1fUOQruC7lSaTjlOTTPijABej7vPz81Q3OGlubr7s55rV6qpS5RmGEQxLEULjCpOiMsnn869KU8QyDda1NFHnd/1TCAouzOcvUXJcEJHrShq4HnNhra7LzP4lNNhHqCVCSQuBow3OD43z8+Nn2fauu0mYYPhNxyNp2L1tI2cvDmJj4mJQvoCgVLrqPK8kxCSAVtSlkzQ1JMgkICLiCO0FFy9evBjqmCKlZNOmTVenSaovuXI2+opdK9a6NtEalEN9XcZr3VnZ90DA6NgUJdu9bgL/z+fDLA5z9xxqD9IVuMEPQuEqeO7oi0zOq1BDJ0vCnh2bySQiS2YkXs95aq1JJaPEo960ssrPnJycDKFb8Xic9vb2L6yaSaoJv+zkLM5Rl/7MPhk0j37VXKcq0dpcTyIRCV2xo2BwZAzbdl/zQa6ADlaJnjKRoJUNyga3iFAFDFXC1DamthFuEaUc+ofGOHO+H9slqHk3BLTUJejuaKlw4L2ZKp5gu7ZIu4GmtiYdeu6ygK8c3yeEoKamho985CO/sypzq9onKX/wkjl0enmGWtuaxEUoRUNdLbGqojRbw9T0/GL58QqaSPrhLEE5OU/7sxRVaNaJln5JgZBetw5pBP2hXvXIlT+SQqAwtEbgUJNMUFdbTzqVIJ2IE4tHiFpm0N8qu5BjIZdFF3PMTo7hul1BIyspoCEd5aatXRzpGcFWy5iv16DJLcuivbkZS4TFnlKK8fHxkHVUV1d3xW4pKzJJmUFc1/Yt08XA4WLui2CtZ/56VXICw9C0NNYhy2C7PxJ7dk4zOZvziLpCaorK1jeqhFAlkjGDTCpOJhmjtameTDpFOhknEYvhKEV2YYH53AIjE9OMjM8wMZuj6EqQUW9m4jJj4AKbf8lMxFd2eEN50nCAHGmN1EUS0mVdSy27t25k+6ZO2tsaaK6vpyZtETHLtLToSmjt/ShXo12HhLlo6koNpnDZ2NlKMhFhYX7Rz9FitYNMCflFEohFDTrXt1ZMU/bW9PQ0J0+eDCBgwzBob2/n2LFjq2OSSCSyLKOEMGXtNQr1+s+9iiSjUKSiERrrM5RLnoU/Km1yZoHp2Zw3BlqAVF6VoikUhlTEIxbNjQ3s7O5i+5YuOtpbyCRjJCIGpgF2Me/X4WlsV+MoTcFWZAsu5weGOXaql2OnepjL2dhIXG2wFqOU1aBDeUyG4Q/8TEQEmzraecvrb2XP1o201MVIxqpHe4MuD2TSZWL3P9PyyE1USHGEwMClrbmRZDzGeDYH+vqyODQuiViUhro0JkF/bbTWTExMMDQ0FDK3Ojs7r/iZAZM0NDT8fSwW+8jCwkKVT6KXWKWLwy/XvCLx7F+tSMQtWhrrMCo6AypgYmaO2WwOIeNeSxzpFQltbG9hR3cnN23dSFdHK/U1ESzTOwnDd/y1hlm/3FlrTUx4/f91VKJSJp0NXdx5UydnL+7gp88d5+cnepgrgqONqg4sy0nKl5eRljKIQKCICJfW+gRvf/M+9u3ZwsZ1GSzpE47PHFRMJV7UkjrQ5Cv7D36b1GSCiDSRejEDmBXPZWVBWDaLG+tqqEnEPH9KLNLy5OQkhUIhxCQbNmxYPZN89KMf/WhXV9dHpqengw/J5/NBJL4seQ2hMaUgHrGYLb56ou6xiNdXK0wYMDc3A26JuGnS3FjDnm0b+cU7b6WjpZb6lEHMWmY8dYUlZGiFwkVoT59UZuGZWhCNGNy8tY2NG9axZdMpHvn3Z7g0lfXq59doSr43pc7Ps9rUzrvf8Sa2ddSTsjRJWckQi508tRI+x3s4layaUBcwFFDtaVSniVwznC4UQjl0tDVTk0r4Ctv7DMdxOH36dGh6tGma/Mmf/IlYNZMAwezDskSYm5tjaGiI3bt3h3roppIJkok4cn5xyOTKePraWIYhqB4nohywc7N0NCa549ZbueuOvXR3NJGMgSnL/kxYUlZKeqVBScMfiyYDIvAO0JulrrXCEg71UYM33badZDzCV/Y/zsic7QcvxZrwQap2hqFKbN3QzAcfeCNb1tVjCYWhVcXQJoHyW0vZyv+z5DUIcV0PmBICoiZEI955Sg0Rg6ArvfcZkvl8gVJFBofWuso/XDk+Ukl3UoPUDi1N9SRi4d7BxWKRU6dOUWkppVIpFufvrJJJ4vF4iIPz+fzSuncB6WScZCKGFHO4rxIoOGpFPEap0Iommp3dndyy57dY15TxbGx/j+XpXuWdu35DAUd5Nf6FIiwUSszOl7BdFwlYhiQSNYlZFpYUGNpB4nqN71DUWAb7dm2k5P4SX/n2j5nKOyhtrjnkSyqbrpYa3n//PWxZ10BclALj3hV+t30HJmcKjEzMcLF/iNHxaSZm5pjL5iiWHGzbxhCSZCpOTSpOTSpJfTrCG163k66OZsyK0eDl4igVTNYW12jFKxJRk472liUNRUulEuPj4wEYIaWkq6uL8fHxq2OSRCKxJE4yNzeH67qYpunVIWpIJeKkEhGUcvDIam0X8Qo0yXgMsypIFbUEe7a0g/T8jHJLXx2MofYkla29abuzC3B+YIKB4XEGBocZGhtnLrtAybGRCOLxKG0tTWxc38pNmztpa0iTMIoeQWiPkdIm7LtpE+cHRvn+T34OhvQjzVeJ5lwFbBtCiy4jictxj7gJb7/7NnZvbCQqFututIxQVDA2qznw/Cl+9vwx+i+NMzs3j+M4CGGgpVc/IoQREKTWLihNKmLTWFtLx7pmDLmoN5VSS0INssK/uZwcDl4nJSiXVDxCV0drRbdN79+npqaonJRgGAZ33HEHhw4dujom2bFjBwcPHgwe2HEcBgYGcBwnaMMihCARi5BJpzCkwNVheHhNojZKU5NOYhlVPbS0xpJliaYR2jMhvAgA5AowPpGlf3icIyfPcqq3j/6hSXJFF4TlN7vzcsCk9ojhRE8fhnZpziR5w+03c9+bbqchFSUqJELbGEBtPMp9b/wFTp45z4XR+TVzfkJrTOmwc1MHt9/cTUzaCL8HgNaCgiM59uIA3/rujzhy6gJaWkSsKLV1GWpSST9sAEXXZXauQLZQCkAKoUEbJYxoPATuaVWVwXuZCVdXQuakgJa6NG2NUYwKUEkpxcWLF0MjqyORCNu3b39qNZ8fYpKtW7fOSikzlZrk4sWL4SIVoZBC0FBX66WraS8zWOhyW56115TOFNLTJNLwQySVSI6fSu0ziK0gr6B3MMcTPzvM8TMXGB6dYD5fwlYaIS0wIl47PqGISjCEG+zf1SaOMhieLfGdnxxifCbH+995D601JpbfFcDQDutqo7z1rlv4l0eeIudodDAZSy0v4a8Z3RNXjCuU87AM4ZKJSm67ZRu1yShSlxAoXGHiEKFnYJy/e+i79A2NU5OIsXt7Nzfv7Gbb5k4aMhmE1LhaM5e3OXJmkK9++1Fm8y4OJkJ48ZNEPLoEfSzZji9sr2+ZAro6Wv3S4LBF1N/fT7k7abl59sc//vFfvGom6ejoeJMQ4oVqJqlufQrQUF+DFC7Cl6iUM4XXoIuilEMiFvHKRZcMspS4wquVmZx16ekb5odPPsfhU+eZypZwRdRDomQioFgpFDETdnZv5Bdu3k59JoFpGUhhMDk9Q+/FS/T0DTE8OsaBQ0eJWIL//cG3krYEBtLrfS5sdnZ30N5Ux/mRuTURPxEoGupq2L55A6YUoFwQHkAxPpvnW9//CReGZ4nG0nzofb/Mm+/opjbuhUDKaJYGikTJNGzn6Wde4MXe4UVgKJUgkUgE+VTgZQrPzs5TKNnBiLerRbe01hhCEI2YbN/U5aGRFf9eKBR44oknAmEvhKC9vZ2+vj6umkne8573HKlGuCrRAK21b7M7nrklPBRHI9d02pMQgkjE8rriV8Z2hMBVkLPhzOAsjzz+U148d4nxmSwlBVrEcSsGiHoXpzBx2dHVzn99z9toq4si3fxiw7NNDbx+dxcjEzOcuTDE/h88zQsvnub2XVu49aZNCGEjtTftpKUhQ/eGdi4MT/kMsvhdN9rHC4rMxHLxBxH4bg3pOC31aQzhBP6Aow1OnB/gbP8EDpLW2hr2bNtEfdyT3kZFyzXt+3aTEw4TkzMovwDKkJCMx4jFosHxKwFaSGayOWzbDTW3vhoGKXcQzSTjtLfWY1XRYjab5cKFC6H4yJXS46v9ntBat25dKMu3VCoFM7DLEXmJoLWpnpglvUGQr4KVTqeDfKLyYTkKhqaLfO2RJ/nz/+8f+MmhU1yazpNXERwRDWaGl9O2F3sJa9a3NrG+JU5EF4iJIlGVJ6YLxHSBWstlc2sNb9x3M+/85bexUHL52aGjLNjanzXo5YDFIwbbt3SRMLSfzRC+/Jc7q9gU0NHeRDLqd9n3l60FL5zs8eJiwmJicpoTJ8+QLXhmoSv8Rg0Cihr6LuX510ceC/XilUKTSsZJJWJhnwSD+WwBu6oH9Wr3HlSdCpf25gbaWhpDMRqlFD09PYyMjASvN02T++67b/81M8lNN90UagO5sLDAiy++iFJ+Ip/2uLY2EaOtoZa1ziPl55udncNxVAAxgmAmp/iXh/+dh75/gEszNkUVwdXhwahSS4Ty8pjK79MYnO8fZmzSCc2/8MxOF61dTBRRU9FcX0vUitDTN8RM1q7oU6YwBOzcspF41A9EVn3WckmnL6XTLoVmfVsjUpcqVI/EcTV9l0ZwlNdnregKvvrdn/C9p08zMAUzBZizYTQHxy7k+PI3H+Nnh89SVKa3X+Elh9akEsQi1mJgVkPJUeTyhZAWrST+1XRylCgsrdjY2UZtKhIK/DqOw6lTp5iZmQloOBqN8pu/+ZsPrlp4VP+i3Pe3jALYts2xY8e4//77g8RGITTxiKC9pYnTg7OvAj0imc/lKTnKg/ulQCso2ZqBsTkWtBUaq305iQWgtODi4Djf//en+JW33UWNFcUUGo3CEMJHxwzmi4rTZ3vJ5ksUCooT5y7Qvm8bWoBUYApNQ02CxroUU/nssqbEywlwGGhaGxvQroMQrtfQAchmF5idW0D5XfZdbTI8vcA/fP0RnjrwDN0b15NKxBkYGuVk7wCjswtokcAVi4OiTRR1tWliERmCn4u2w+T0zGWzsFcV/MRm9/bNRCMECaxlIX/48OHAbZBScsstt/Dkk09yzUzS3d19KpFI7CiXOJYx5pJjY0UjHldrBapEa3Odn8ek12wquBaglaZYtCtwe/95DUkiGiPU/WHJDaglROtqQc4R/OjgESIRi1+8fRctdXEs6aKExMVkMlvi6edP8viThyhoC1O7fhf+bQhh4E15UeCUaG9uoGdk4eoaS13DOVxWjPhayzAMjFBDN0F2oYCrdAgxU1jkbJdj58c40T+BgcBWLq4SaCMWfKEQAqk887K1sQ7DCBNxrmAzMTMf5NLJSvQNr/f0lRncpaEuwbqWhqCjSvm+Zmdnee655wKn3TRN9u3bd31M8ru/+7s7N2zYoMvFKUopent7GRoaYsuWLYG/EjEE61ubiEQl+aJY03mOSkChVPSHDQUhEoTQxGIxLygqzctK2SWzAzGYK7h850c/43TPeW7fs431bY1Y0mJsaoZnj5zkZM8gsyWBEhYCycTMHI5PCcLwGk4YwqW9uRGp+17R8t9AALiun9zo9ZASWmJZkSUxCy0EWpgozKCLDsJaDPmI8OdKXJoa6jFkuZuJwNVQLCmmZ+bRmmsGfwSazZ3t1MStkP9Q9keGhoYCAZnJZNizZ89Hr8pXW+6XNTU1oSHzo6OjzE7PUJPynF+NwNbQ3tZEPBphtlQuNwvXS6yJmm8tEUiKJYdIPMb8fA6higgM8iWTSFQiBbhi5aCoWDFaLcm7FscvjNMzOEUkYiK0pGiXKJRcHO1NrPVqVxTT81nytsP6xgym8HRJzIXWlgaiEZNCcTGCo5UPnlxv5P0KEfxqe18pRTqTJOpv2dEQm3dXHdhbNr6jvSrEmlSS7FweGy9ptkgMW0uyeRuQ4fdUxIvKEG8ZNPIyImRQNhwzBVs3dVKblszPZZHKDkCnH//4x0HjhzKq9Wu/9mt/f3XG+jJr48aNoTrjhYWFUPE8gCGhoTZNKhH3Oo/opUS1Vmq+tdZ+ijShXDNDaOLR2HUF6lxhUNIWsyXJRE4zvuAyZxsUsXB8G95r1iaZncsyPTsXMILUXjpMU10tiWgkdH6vRL2OEhJXhWgbKSEWi2HIaxN4HgABlilJJeMh5M7VMDYxScm+fAi6up9viA6FIpWIsqN7g5+trYLPz+VynD59mvL0NiklmzdvvgaPdplVPcZ3fn6eZ599djEY40faU4k4G9a3olz7ilL3lYO3PFSqULJx1WIXwDKkHY9G/ezRRVDyWotkqhsyV84XFBhk5/PMzGZx9WIxkAk01GdIJqJBb9zK/lM3Yv+X+xzld1zUQqC0ZjabC+Bc6Zco12VipJLxUO9exfLR/Oqa+PJ5pJNx4hFria6Zmpn3+i+vEBla8nkV3eaF1mhVoquj1Td1KyYEK8XZs2dD09tM0+TNb37z4A1hks2bN+8txxTKCNeZM2eonqeYiEFneyvCXRzztZRA1sZyXTeAACsh1kjECsUEXjptBiVXMTI6g6MIMl4NAXXpFIl41M8Ye5llSJWTfml0DFuH7THLhNbmegwZvuNVB/xcRTIeC4rWgt8rmM8u4LjXJpQkCpwCt+zcSl3a8tNEPaHoui69vb1MTU0F/khzczOf+MQnOm4Ik7znPe850tbWFjKbRkZGQrn3Ao1pQHtLIxGpqYZm1oqpVdYarqtDzTcEYAhJLBJd4gYuN432uk0ZNK6S9A+NULAJUo4FkIiZrGtp9Kjmpe6ffJlu/46GwaFxCnZFUoL2is42rGvDEl7ln9fRcyXZv/TchIR0MkHEMn2aksGZzGVz2EqvDDD6z7tcV3mBoiEdZ/fWzUTNcHXkwkKWH//4R4E/Ypomr3vd666RGVdYHR0doQ7dg4OD9PT0hDI2JdDcUEMmnUArh7W6KkGI6glHhilelsbeAgPbVQyPTfopL4tEFYlAe2sLQrleIOwV0sIawWwuz/ScHRpXgYb1LfVEDc8EuxYzNJmIETHkEvLLF0ueqLiGMR3KLbGhrYGOtppQPpjWmsnJSU6cOBFYP7FYjNtuu+3GMsmmTZtCfkkul6O3tzc8CUtAW1M9jbVJPxVg7QHBWoSd4Upza0nLpNBFra4X8Ko1plDefPG5OYrOolTUAgwD6usygaB5SbXwZXwUrQVTs3lGJ2YqtK7ElNC1roXGTDI0smIlcVB5buU56vFoBMe2vaRJFEJKzEiEom2vEMPR6LJm9bOVwzMVNTFTcOue7dTEwjflui6HDx+hv38wuOvGxkY+9alPiRvKJNu3bw+N8lVKMTQ0FFSRlaVdPAJN9Wle0kjYSxgXUFove+1XU8twNRqt5CgWCk5F907lm1xRP3/rFTxHIZjNFRkam6LSTfCEYR3rWmqvesChF6RUfosiZ0WQY+X3LqdCvHHo6WSM7ZvX+yXBi2eczWY5cOBAADRJKenu7r7mY1mRSbZt2yYrB4q6rstzzz3HxMREsEkBJCLQ3dUZFC+FlPca8N3LPokQetlkzEpnPhxdVy+JZrRdRTa7UMGo3hWkEjGkeGWTqV0E+ZLm+OnzLBQJqjMFUJsU7Nq62WdkvXohUhGkrEYyXNvGMoxl+U5ovML5lQSTW2JH9wa6N3T4qFZYmB8/fjz4TsuyeMMb3nDjmeSd73ynLgcVyxd66dKlUEdu8Ar9N3a0Y5myarNrp3l09YW+UnEcIQzskstCvuhDwMIv1oJoNIJlypf9mULfpyWOlvRcGGBuwQ6qNKWGmAU7tnYRNb05k/qqEEGJqxWRWDwoPLkeFFSiiEcEe3ZsIZMSfqr+YjXtCy+8QF9fX/AdtbW1fPrTnxY3nEkAuru7Q420y829gmJ6H8Jsb/W6+AntBoxS2V1lbfgkBlIupsrrMuLkaj+X6vK29Y0gRqU1tquYzy1UfIcnNaMRk3g8+jKUHujQT2iMmpQoJOPTs5w7fzHUdtQE1rc1smF9G1LZV5397bq6olJmsU1u9STcxXsTK+YDChxaa5PctmsLEX8CW1D74jg89dRTzM3NBajW7bfffl0ndlkmufXWW0NMMjIywvPPP7+oOoVfV9xUS0dbM0K53uFruSY7rGvtLku8yz3rjX7+oD7HccnlC0s8j5hlEouYr2juVjnxcyFvc+JsH3kXP4Hfe6aahOTW3duIGnpxnN4q976QL1JaEg9RxCKW9/mrRhg1EQm7t22guTZa0dlm0dT66U9/GqBa8Xic17/+9S8dk9xxxx3xysGitm2HYGCvtkSTjMKG9mYs4XqHJ9aeE29KL++nmjDcavvax+VfChhWCAPbUWRz+ZC7Ywhfk0RjgQ/1UoLRV9KQWpic6ulnZKIYsIJAEzFgz/ZN1KciSOGu3mfTgrlsjpLt+LTjWyIIamvSRIyqnmUrmstezUs6YbH3pi2kY2ECtovhXC2ApqYm/viP/1i8ZEzywAMPFNrb24OHdF2XAwcOhDpzC60wBWzf3ElN3ArNmVgzS2hisSiGKUL+iFKK7HwOJeRls+Vv1FLCa9qWL9nVs2mIRiXRqHXNdvoN1SrS4OLQFKcvXApF3w0BrQ1Jdm/fgCpdxeRcKZidz1IsqZAJJSTUZtKeP3uZZNjKCVaGdmhpzLCju4uK0hS01oyNjfHEE08EWsQ0zety2FfFJOBVKpbtRqUUw8PDDA8PV2xIYvhln7Xp6MuS4nEtpkRtJo3lw5HlVXJ8/0DIcLbsS6gJVyQGvXgZL4/JtbJGUZjMFRQHnjtWgXIJrzFhBPbu3BwazrqalV0osFAsVZCcd8a1NUlM4ZnCVxIOhtCYONy8YwuNddFQLaNSihdffJFjx46F2gb90i/90u+85Eyyc+dOIpFIcMGlUomDBw+GOqgIAZmkxeaudV6XjbWkRPyeWLU1aSyzEuaXOI5iamaOl6u1nuFfadS0lsDjjk2omy8+aIsAACAASURBVMcrvZQwOXH2Av3DU9h+jZTUEBEuOzZ1sqO7C4PSKmcdSpSC7PxCuBsomrpMDZYpVgWRCByaMnHu2HsTi0nTOnAFHn300SBEYRgG+/bt48Mf/vAXXnIm+dM//VNR2f60VCpw6NCzQeNhr0AHUnHo7lyHIdUNGRJ5wy5bLdZXR0zQFZrEUS65hYKH81Rkt6obzKThv2uva0sgT70ncpRLyVn09V7R5aNcE7M5jp06z4JadOClVmQSEfbdsp2U6Q31WcFmC2UwaCT5YhFhmF4tiH82yUQM0xBcKfdPaLCEYMemdrra6jAJ92eemJjgiSeeCIS3ZVnXjWqtmknAq+aqfPgLFy4EPYK11gjlNULu7GgmFY+tKce9TKQ1NWlMs9xn1vNBHMehUCighAy3Qb/Bpl7l/xtSErGsKvMLbEdhu2sj/02XC0nMCE89d5SB0YUKB14RNeB1N21ma1crEveyQqFsaijtmVzh13jzXxLV48eW+RyJJmoofnHfXmqTYUOxVCrxve99j4sXLwbnXV9fz+c//3nxsjHJLbfcUpHsCBcu9IX6qgrhOXXr21pIp+IY6DWlTcDrHPj/s/fe8XFVZx7395x773RJo14tWbZlW7ZxwTbNhU6W4timBDAQWAKb8m4gm82WbLZA2Lxkdwkpb3bZlE0hBEIggNkEgmNsHHAB3AvuvcjqXaOZufee9487czVXko0BF5HV8/nMB2uQZu499zzn6b+f1m8wwUY6rLv9FuRMXbvjdysMQ+sDYUt9VdK2SFqqb15iKBwwUmf/8VY27TjgCeAFFkXZBhdOGYtf866Xp3tBpFvrBZbSaGvvxrS8DbKGLp3BPQYOVvUhpjhzI5UVxYwdM8IhDsqYYz9+/DhLlixxaUJ0XeeiCy48fYb1VH7p6quvfjEdlwB0dHR450tS9ZL83CAVpflIMbTSwFIoZ/LPTsH+pwpP8UQSM5kC1xsEzuZMiE/XCPiMAe9blkqBTg+dmM5SGl1xxZIVq2ntUthKIITm8rBfNHUio0YUo4v352G3EbS2t3sp5oTCZ2hEs7M8Pmb/jgiJjU8kmTVjMkVRf4qIqa/dZd26dbzzzjtuwJ6bm8snP/nJh8+qkpSUlPx5n8sliceTrFixgtbWVtra2mhvbaOjrZVkLO70cQn7pHnvs+w84PcbSKHo6eohOztCNJpDVlYWsXiCWCJ+xr/fZX3Cxu+TZEeCdLbHaGtz1q+tLUZXd4zeeJKhhM+vBFhC5+CxJjZs2UVzZ5LsnGxyo9nk5kQoK87i4vMnkO1zcIQHtUYqvc0FHV09hEIhcnJyiEajZGdHMBMxImE/YGOLE7SqqCQV+RFqq8vo6YzR3tbq7r3GxkZeeeUVGhubnUyrpjF16lTuuffPHzqrSrJw4cL2CRMmeFLBu3btcqm1lFJOM5qyGDWynJB/6CA7KuXUSCLhYMrd6bvznu5e4gkT6yy2+EcCBoV52aRZe50qt6SlrZNYb3KIDRs48VvC1li+ej0NbT1ud7AUipABs2ZMorw4OoBFbDCFi8V76U2Y7jPQpGNZc7IiA2K3PiVT6NhcMGUcpflhNGV6Kux79+5l+fLlbmYwEAgwf/78N0/nKpzysdU3hGWjlEVzczObN2/OmMeQSARlBTkU52W5Y5Tn2ooIbEIBH5Fg0NNlayno7IlhWRbaGT29BSKFcStQ5ITD6EL11USQICTNrW0oqTkFxyEFiymwlWTHgQZ2HW4gkeFASQGVhUEuOK8GTQye1UwD3CkkXb1xEqaVwgBOu5+CrHAAXUhkv2BMKIVQFoXRCNMnjyfLR2qeRbpp37feeov6+np3fKOkpOSU0eJPu5LMnTv38cy4pKuri02bNnlaoLUUImFFcb6np+acPmJbEfD5CQR9bpt3OtnQ093rQJ+eBWsmhEAXUFKYh1+TbtFVCIFpmhw93ogtDSeP8wFnyM+0mAiauuK88fYGOntJITM69xDU4eKZkygtyHY43k9gEZRSxHri9KRQa1wtURa6JtDkoA8PTSSYMmE01RVF6CkM5cyA/fe//z29vb0pUHSda6655vTHtKf6i/fdd99fZ86XJJMWe/fup6uryz1ZUCZhP4yuKkcXg6djz751sR2KtoxgOc3119XTfcbxdl0sW9tGk1BeWuTwnYs+RYjFk9Q3NiGkBkq6lm0oBPFpjCtTGGzffYQtO/aTUKkW+lQVfkRJHrNmTMIvkp7GR8+otJIk4yZ20h5QSPX7/QOQIwGnBSUaYM4F57kt+s4Al9NStGrVKrfCrpRFUVERTzzxhDhnSgLe1nnLsti4cSMNDQ19kC0pIsnaMdUYg5jfs42UnvZaNE1DyoFNi6ZpnZXrSYOrBX0GI0qL8GkCXchUvUbS0ROnrTOGwot6PyQscQZIeFssyYo1G2nssLFEegMpsvxw5SXTGVGUDVbipM/aef/E65TpKvskTB03kqriHPQ0LGzq97q6uvjNb37jtsRrmvahZ9hPq5LMnj3bpS+wbZPGxnoP8ajDKuXMHVSUFTs5jXP8oJUS2KZyCjz9rkXXzzwNm0rNO2BbFBXkUlKUi47ljrKaStLW3kVHZw+mjUvz4CBPakNESdI/6Ly7ZS9b9jiNj2mPSRMwsiTA1bNnEDD66iZeaNgMRVAMeL9/LCmFIhLUmT3zPHICwnG1hAChYVqKlStXujGxEAJfwM8dd9055pwrSW1t7fczSX6am5tZtmyZWy9x0L0hGtEZP6YK7PgHmjs4U6e4bdtOoa7f/zMM46Sn9Wk7yYXt8mcU5mY7VWrlgGubSmPf4eN0dPcMvjGHgLuVFktImrtN/rDiHVq7HHR9lNOWFNDgkhmTqBlZhkZi0GZNJU4tmePAcZvUjCxlfHUFhrRQWCnXz6KltYnFixfT1tbmWpGZM2dy84037T3nSnL//fd/cdSoUa7LZZomW7du9RDICxQ+AybUVJEdkOe0dV4JJ8/YE4vT3eO0n7jzcQJysiOpPiovh2Lf1N5pWmRlE9QU40ePcIiPUqeiQpCwNN7btY+E3TeJd1oRHE9jplAhsTU/m9/by7ubdzlDWcJxuXSgoijEtZddSJbPyUoNNpfjWIPMkHHgQWQIyA1KLr34fHyaA/qQ/j1l2WzbstUzWJWTk8Ntn7r1lTN15x84ah07dqwnLtm5cye7d+/2QPMIBaPKiynICaUgZM5d+lKg0d0To72rq09BUm3puTlh/D79xO7F6VpkoYiGDSaMqUQTtjshaSlBd8LmwNF6D7XBabdkp1VVNLqSijdWraehPVVhsh3Kt4AGMyePZezIEodOznNA2gQDAfyBjL611BZMJMxU8J2CebWTTBxTwbjKYjRlOp+fQtxMJuO8/PJLrhWRUlJbW8sXvvCF64eMksydO/fFTAjUtrY2DwhY2kctyg0xoaYKiTqnD1sJQUd3D23tnSgPWDYUF+SRFQ6lTvbMR5f5+qjJA4UhFFNqq8nPCaQQEDXnVEZj664DtHUlcUpm3sdxNpmuTunAEWnOEJ3Nuw7z1tr36LVw5nFSq1WYDddfcTH5kYCndiKFICsrTCjgT8GRptxfIYn1JlygboVFUNpcM+cCCrIMNHe4D8xEklWr1rB8+QpP8fB0tMOfViX5/Oc/f2Nubq77c29vL2vWrHGzDOnFyg7CxNEjQSU5l6B1QgiSpk1HTxxL6M4EYqrXLC8aoSA32z2tTj+OsUITipBPY+qEMUT8Tso0ndWKJSy27zlAj+U0Ww7gQVFDj+7bsQk6nUlY8c4mjrcksDJQVXwCJo+rZkptNZow3XFugUUk5COQYbltBb0Jk9bOTmcrChvNTjBpfBWjRxRiYJLZQt/R0cHvfvc7Ghsb3ec0adIk7r///i8OKSUBpys43aJiWRa7du3yjPRKBQEJ40ePoDA3B9SJ56Edj9NLEXa6PXElNXbuO0RX3MJO1S2kgqxIkEljRyFtE0TfaKkHiytjw39QZXdYwZKUleQzdlQ5BmYKLMPJah2pb2XrzgPYGA6So1BD0sVy7kW6jGDpnq59h+tYsXoDHYm+eRMdKIzqXH/FbHIDwkWm17Aozs9F71dA60lYNLd0YKHQlE1hlo9rL7uEoE843eSp3WApm/d2bOcPf/gD8XjcjUUWLlx4xu/9QynJ7NmzCQaD7obav38/27dvz8hyOSm8suIoVRVFaMpM4UudCO/qDAeoQrL/UB0dsaTnm8J+OG/8KIK67W7e9Al1qtZksE3tMsLinIwzJ48nO+RHYiKFcrNaO/Yepqm1K3VIDGGO70FcL4WkJwl/fHcTRxt6Md0YUGEIGF+dy4yJo9AxEZgY2IwcUYbPyACSA2IJk6Y2h1VNWHEunFLD2MoCpy6SGulVStHR0cFzzz3ntqBIKRk/fjxf/epXxZBUkq997WuisLDQ3Qy9vb2sX79+QKt3wA8zptQS9oHE9DBgpSfXvHZEnQSt/MOLrQT1Ld00tPakeDVwH2bt6DJGV5WAMt93Y3g3she3KlNpXMVRSSoKcpg6fjSG7EOTVAjae2HVui3EktaJ8aWGUipY2Hhbu52err1HW3l91boMJHoHLC7ig2suvZCi3CwMTHIjBuOqR6CJvvk2paCjO0lzexe2bZMfDXPlJdPJ8im0VHLDtm0XgGTZsmVuLBIOh1m0aNHGs3HvH3o/1tTUuFVs0zRZvXo1TU1NbnFHCIEmUi5XNOTpuTmxSyHO2G22dvWyZede4hZ9pJdAbhgunDKBoO4QYJ6OGCitRDo2UyeMojg36MQ9qa9OKsnOfUc4eKwFpPaBrNSQilGEQdzWWb3+PXYeaCKROjqkAL+A8dVlXDJ9IiLRwdiqUgqjRgb6u8BUsO/QMbq644Q0xQVTxzOiKBsffZkxIQRtbW28/PLLNDQ0uAmNKVOm8MADD0wb0koyffp0NE1zN/3Ro0dZv349yWTSfU8TUFWSy4TRVZ55ZGcu3h5YQ0nPRSt5Svzdp2xJkNjSx5b3dtPc1g++U8Cs8ycxakQxhjQ9TE72KcYk/dspHIA+i6ygjxlTxhLxKyfLJ1JBb0+SNRu2E7N1bGEMiGPEkNQN7/0rpVJrpHOkvpU3Vm+gvbeP41AKyArBNXNmUJEbYtLYEYR8fcegAmJxeG/3fhLxJFWluVx54RT8ure2ZlkWa9euZenSpe78ejQa5ZZbbtl+tu78QyvJo48+KtJxCUB7eztvv/12P6IfyAnBpHHVA8Y8B4muz2ga2BYGR+qb2bx9NzEzTXfmpIIrS7O49rKLiRg2Gqbr9p3c3TqJW6QspJ2gtqYypXwpkiOl9wXsuw6gpDH06PM+gMVMK0rChj++u5nt+9IsWcJtUaouDXHjdXOZOXm8O3arABM4XNfMvgOH8PsMLr1gakaPVp80Njby1FNP0dnZ6VqRiRMn8uCDD04Y8koCMGXKFDeXn0wm+eMf/8ixY8c8WS6fhKkTR5MT9nt6uZTAC74gbM/rdM96KyGIJeGtdzbT2GG5CCkCpynz8gvGccnUGvyalTrJ1PsszuBKoxRoKHICkovPn0jIpyNsy+HOEhJLhlizYRvN7V1YmZTZQrjxkhJD0dUaeL9pt9qWBg1tvby+cj2d3RmxCRAy4NorLqG6otBFOLGFo1j7Dhyho6ODmlEVXDStlqBuownbUxdZvnw5a9eudUcygsEgd9xxx6/O5p1/JCW5+uqrCYVCrvk9fPiwZ8bE6R1VFOSGGF9ThaHZ/egNzt5GsAFLSbbsOsTGHQfptdKga07aMicICz4xl9rqUnzCQlMncAXf53R1cL5sRpbmUzOyFEMqhHQCfBONo43trN2yC6UZfc2Mg6zFx8rCKInSQ7y7eQebdh6g106z3TnPPxzQMIRyXW5bQVOnYu3GLWQFfVxz6UXkZQWcFDl9MW1jYyM/+clPXOZnXde57LLL+NznPnf7x0ZJ/umf/kmUl5e7DzQWi/Hqq6/S0tKSmt12Xr3dvUyurSGsO6ds/6LZmVUOJ38mcfg3OhKCJW++w55DrTS399Da1kFHexux9k7K8sJcf8Ul5PgsNCxvN2vKwg0WM2R2QQsFulScN34UVSVR8rJD5OZEyc7JIRAOsmX3IZo64yh0TxLjTGT1zpaCpHG62jp7eX3VOupbTZrbuzLwD9rdvdDa1kFTWy9bdx1my449TBs/ilnTxlIY9RONZhONRolGo+g+gxcXv8SOHTvclqf8/HzuuuuuuWf7Fj/yc5kwYYKnl2vz5s3s3bvXLcgppdCwqK2uoDg/ghTqpLivZ+Q5pjcxkiQ67+0+zKvL36YtDibSuVY7gU6SyWNKufWGKyjK8aHZcQQnnjlJ30cm9I1EkR3yM3n8GCJ+J+ZRCJSE5vZe3tm0jSQ+bOTHNh4ZsL6p5kwTnbVb97Bt31GSygGhy2S0spXAQtDeFWPpG2/i9we59urZ5IWddUofPpZlsXr1ap555hk3xvX5fMybN4/bbrvtzY+dksybN+/h9FivUoojR454WIaEspFYFGT7mDC6AmFZZ/kGbTT36HeKYDETVrz7Hut3HCZuO31UQgg0ZRExLObOHMdtN1xGXkghrbh3JFV4ZyMyU74IG6kSlOTnMG50BUbG6poKjtQ1caSuCXOQOZFzTAR3Su7qoNeXtrBCYEuNLlNj+ZqNtHYmSCrhiewsBHFbsn33Pvbv3cMVcy5i7Mgy/KnG4PS6xuNxnn76aRfbTQjBqFGj+PGPf3xOTpWPrCT33nvvQ2k6ayEEHR0d/OEPf8gY6wVN2QQ0xYXTzsOv2WCfy+0gsPDR3GPym1eWs+dwEwl8WEJPzcMkyfYJZk0by/9z902MKc9DUz1oKpm67pNw/Ckbv66YNmk8OWEnxewGqhas27ydjs64e/L+KYkzTCUxbY3123azbPV6uk0dK4MgKW15W5vrGTuyjLkXTSUrkMbQctbVNE2WLFnCSy+95ILNhUIhbr311nN2b6fFDb7iiivQdcfHNk2TTZs2ub1cQjl5b12YlBdHqa4qQ0sDBgwSCAslnT6hM/lAhcAWfg4db+O3K96lLaFjkbIoCjRlEZZJpo0t475PXcPU6iKCWtKpo2CfYM7E6VPKCfuZOL4aXWTwigPNXbBl10GSqe/vX3cY6jHJ+12fSDFT2Ui64orfr1zPriPNJJV0rYmGIqjD5RdN57b5V1Cc7UPvp2iHDx/m6aefpruzC0FfK/zDDz8sPu5Kcn1+fr7nRn/729+6LQSONTGJBHRmzZhMyFDnbGLRzSYJgSkMVq3fydMv/YHj7QmSwnBQClMWJSBNJows4S/vvYU7F1xFTXkuES2BoeIYJNCUhcAC20lta1IwZkSxk+7MWNmkgvd2H6KuqRNbybOe2TurcZ8QWEKnsSPB8797nSPNXSSF4SiKshzA7bCfquI8fCQ8ReZ4PM5TTz3FkiVLMFO4yLm5uXzuc597/HRc40svvRR4+umnr3vuuedqP2jy+7TI+eefrzZs2OA2n82ZM4fHH3+cqqoqd2PG8bH3eA/f/cmzHGjqxRT+QSxJn+9/Fh4tOhZ+LcEl543hjgVXU5qto6s4YKOExMaxMklbcqypnbWbd7Fu2y7qGjvojCVJ2AKEjq0UAZngrnmXcuv1lxDxgZbq02qLw/+88CYvLV1D3Pa6IB5elKGavRr0+tSALdSXkHG6dwPE+cQlk7h13pXkBxSanfBENkIIotGo62atX7+eu+66iz179jgJH01j9uzZrFix4gPvhieeeOKFrVu3LmxsbKS+vp7m5mY6OztJJBIIIYhEIowaNYpPfepTD997770Pneyz9NO1ltdffz3btm0jHo9j2zY7d+5k48aNVFRUoGkaQih0YVNWEGFq7Rj2L1sHPv85PfmEECSEBqZk3aYtTBxdSvGsqS7Su1BOBV7DxBCS6qIwFVddyDWXX8LOfUc5eLSeY/VN1De30d7RhUx2c37tKEJGqrKcAmZrbu1k63vbUySmDm87Sjpul7DPaLfBubAm6QpZwtZZvnoT5cWFXHVhLVnG4KeyUoq6ujq+973veVhzbdtm9+7d3HDDDaqsrIy8vDxCoVCKAiRBb28vsViMrq4uOjo62L17N42NjXR1dfGlL33JzbBmjj5kzgzt3buXd999918++9nP/ssPfvADccaV5JFHHhEjR45U6ZtsbW1l+fLlXHnl5Ti8i9KZ9dZtpk4cxetr3qM1YTsQ/5544cTZFcc/VIMawYEWyPt7/Wszbju7csZrJ9RUM33yBCcTJgRYfRRlzt/aaAqkTODTNaaPKWTamCLQfPQmkiQSCWwzSVVJHjpOM4GtBJaCw4eP0tbUhIGNJnSSSmIpiVK6c//Czri/ISb9LEjfOotBN3saHV4JQGjETMkry96ksiDI1PFVaAzEPYjH4yxe/CKvvfaqhxwqrTyvvvqqZ0rTSRJpLveMm2JOKUPmqEPmvzNHzJVSWJaDRPrss8/y/e9//48nQn7UT+d6zpo1i2PHjpFIJIjH46xYsYIjR44wfvx4RKrVQpc2o0aUMra6nPU7j2Kqc5fpEVgIK8554yq548arycvyI7CcTuZB4hiBjbRsIOnk9YUgOyuIkhpKBdwFFUq5rRkSKC7M5f5P34yth+hNJNl/6Chbduzl0LEGYgmFkgYIB1T64yxCCJSt0ISNtG10TMpL8rh4ag050azBDz/bprGxkaeffpquri43KaKUdzNbVn8eFA0yqvNSSnRdxzAMiouLiUajZGVlEQ6HXXr1ffv20dLS4lEWcCYef/3rX88545YE4BOf+MRf/P73v/9huo2goaGBN99cyahRY/D7NaRQKGWTFfAx94JJ7Dt0lLa4RTLjMk50op7IgpxKuJWOk/oDMRvCZGxlLvcsvIrKoiwMEoiUggghsG2bppZmAoEA4WDI6Xp2LZMzECRFGkfKCUGFyLRhCk1CTVUxo6qKHfdLQWx6Ne3dF7J28y6WrlzHzgPH6bX1VP1kaCvK+8eKCl1alER8XHvZbKZOHElJXoSgbqNjQ792H4mgML+AL33pyyxbtow1a9bQ2dlJLNZNPB6nN5FMHa4CTdPQdR+GYaD7DILBIJFQmFGjRjJmzFjKy8vJz8+nurqacDiMlNKFjert7WXHjh089dRTrFixwlOisG2b7du388tf/nLhHXfc8eIZC9wzA/iNGze6cyWzZs3ie9/7HpWVle6JbAo/Dd2KH/7yZd7ecZQEPoSQblfp4G7HyZXkgwT8AgtdJRlVGuUzN3+C2uoi/CLpznykF27Pnj38138/QXFxMZ+8YR41NTUeNEghBLnR7NTVSd7PUUwrkp1SpF4LDjUk+dVvl7Jy3Q46em1s9I9tDUVgYWAyvqqEm66ZxdTxlQREHE0lkW5Q7w3cc3OiIARJM0ksFuPo0aM0NjbS0HCchoYGGpqaMU2TSChIKBQiFIqQk5NDdjSHwsJCcrKcn8PhLKSUdHZ2DnCrM2Oc+vp6Hn/8cZ555hm3DgMOoMR//Md/vPPFL37xwjNqSQDmz5/vBvBKKbZt28aKFStYtGiRi/4ohU1e2GDWzPPYur8OM6GwlY0QEpnyKZWVzr3bp6TPrnL0z8YMyM44NMeV+QFun3c540cWOhi2GSdcWkEefvhhVqxYgRCCF3/zApMmTWLevHlMmDCBkqJigsEgvcEguq4j5an0ozl2SKYuOKjB6BKDe268mmhWNouXvkWPKbGGAHIjp6Dy/WM9TZlU5Pm47Ya5TKouISh6EcqZG3Ldp3Q7Tmry0HluCl3XycrKYty4cdTU1LhuVv84Q0rpOaT6j1qnZ5wGS/trmkZxcTELFy5kyZIlHD16tH+Mkn/G3S1wiEgzA/i2tjaef/55brzxRrKyslIcixYGMHF0JdUVRWzd15Dq9cloFBReOumPGnw6QSVoJCjM9jPvillMGVNKQFgeC6KU4uDBg3znO99h+fLlLujAvn37OHDgAMuWLaWqqooJ4ydSUlJC7cQJjB49muLiYsrKykjXi/qUV6Js4WLnZhbmtFSgW5GvM//qSzh4+Ahrth1EoQ3pFpXBNqBQiohf47rLL2ZCVREBkUCmFAGhYSmJiUbSdiypjoEhHYR6mcFcJYRwC9PpQ9WbQHmfwxKZMdml3MDenZbVNCZNmsTIkSOpq6tz4xPDMIhEIosH+8wzcmTdeOOND23dutW5AAEtra1MqHU2k4Oy4mCSaz4flvSxc+dekgov7pRQGcZDva8lSf+6g4uY8bcpP0xKiabiRP2Cm/5sDldePImwYSOV1VcZV4pjx47x0EMP8corr7gKkqlAiUSSxsYmdu7aybr161m2bBmLFy9m586dTJ06leKSstTkpXMlthDELTjcEONgfScJC3x+A12CUA4lGkIQDgjy84vZumMf7d1x536HoNs12BSNUAqsGDMmjeGTV15ANOA0tUrh3ENSGDR1KbYfbGb5u9tZ/Ie3qGvpIjungJzsIJp0YhNBZuOrPeC5p2n8yACBTP+slLPesUQSC4HUtL4x7f504KbJr3/9a44ePeoq0OjRo/nJT35yyVmxJKmayYjf/va3h9MzyT09Pbz88stccMEFFBUVueO7fmkzuaaS8qIInUc6nHaUfgH2h8Hs6h+XSECqJD6R5PILz+eymRMJaRbS9qIMtrS08NOf/pQlS5a43af9O5bTP6eRYZLJJJFIhHvuuSfVES3cq7aBHhPWbNjLc799ncaWdoryo1x39aXMnjaWaBA04QAnSAHjqguZcd5Yjix9G6UHhrTb5V1fp540aexIoiEDTcUR2NhKJ4HOoYYOfvPqCjbtOER7zOmq3r7nGBu27uITc2dwXu0oRhTn4tNB11Kj20I7gaXoU1Ybp53Oth1Spu5uk4bGdjpbWxlRWkROODhAodNBelpB0s+0rKyM7du3c9aU5Kabbjpy0003sXjxYge+0rJ58803WblyJZ/85CdTZtQBLCvO8fFnl17A4WeXc8vwbwAAIABJREFU0pG0nR5Cj+qLD6YYSqYOIKf2IJVEkMQgzmUXnMeNn5hDNGCjqaRHQXp7e/nJT37Cz3/+c88I8snaR9KL+zd/8zdcd911KZglxzIoBV1JeOWt9/j5c6/Q1p0EaXCss5WdP36ew382izsWXkq24fQ0oQQhP8yaMZlVazdR32mBOPdKckr1G5WkOC/CpLEjXVQYAFvq1Lcn+a+f/4bth5pQegQldBAQw2bXsQ52/uJ3RLNCVJaXMHZ0JWNGlpOblYXfp+Pz6QR9fhA2ZtJ2GIpNG9u2sU1FZ3c3R+qbOHj4GM2tbbS3tmDHO7lo6ngqS0sz+Ez6Drru7m6WLVvmYUNIu2Cvv/762VMSgFtuuWXuqlWr/lhXV4cQgtbWVhYvXsw111xDJBJJFfIcVtXJ46qZPH4kq7bsB4yPfoKmFQTlZlymja/i5hsuIxqS7kmXqSBLlizhySefpLW1dVALMpjS5OTkcP/997No0SIy5/0toNeGDduP8szipTR1K5QMOVkrJbGsGK8sW8PMaVOYWhN1Er9CoSMoiAaoKs2nses4Fh8PkQKqSgvJCRkZPXmShC3Ysb+OHQcbsI1sLA/oReoZ+3w091q07DnK1r1HCPmcKUZd0wiFAkRCAYRQJBIm8WSSRMIkkbRAKUxLkTQtB8oKRVlxLlddcQVzZ55HOCxS6KGO9ZBSYpomW7Zs4X//9389ma1wOMx3v/tdcWJLeYbktttue/Oaa67B5/O57smaNWtY9dZKrGQfVYNUNrkRH9ddcTHF2QaopFOj+LBheyqLJVOfrxOndmQx998+j3HlWR64GoBEIsGrr77KI488Ql1dneujnsyCSCkpLi7lr/7qr3nwwQcpKChwFchBioete9v46fOvcrwthq353LSuwEZIndYemyVvvkNnj3JrLwLIChpMHD8aQw6NeGRg9+9A1BQNQUVpEUFDc2nuFBBPWKzfshNbD2ELeeIoR2go/JjCT3dSoz2h0xwTHGrq4b1DLWw72Mruuk4ON8dp6LJpi2u09Eo6k5C0FXnRMFddch5f+8u7uOGy88kPK2e0IfWcpZQuCem//du/sXv3bvf5GobBDTfc8L5rcMZkwYIF0XQDGziIKs8++yx1dXXuaS2FwicVY0YUMnfmZHzCAmV+6Avra7Drq4XcvvAqxlRk4UMhheVmOpLJJGvXruXb3/42Bw4cOCnDVLowlZ2dTW1tLV/+8pe5++67Uy036ectiSs40hzn1797nb1HW7Gkz62k932uBN3H3gNHaeuKuRBHAH5dkJcT+dhMLab52EMBA0NTCNnXNtKbMDne1IrQfAi0k+OtSYlCw0QniY4pDEzhKI4lA1j4MJWBZUuHAEmZZPs1zp84ms/ddROfuf2TjB0RJSSSA2blLcvi4MGDfPvb32bdunV9SKMpd3nevHkXnuwe9TO5gAsXLmy//fbbef7550kmkw6iylsr+cPry/jCFz5HmoNRIYgA1195Mdv2HWXrvjpsEXCyI+8jVurkl5kPTTnLXZwT4NM3XsWEyjx6OzsxscjOznYB9d5++22+8Y1vuHPUmRZE4qQLpa4RjUYpLi5m3LhxzJo1iyuvvJLRo0fj8/no7Ox0eQWTwqC+w+TFJStZu20fcduhwkwbBYeTJMXmLSSxRNyZ+/aZTlyi6UQiYUKh0BBWEtEvVlEIoQj4DaI5IYK640hZQHM8TdwqPzCugcrAP5PKdpLiKolmJyjKDTNuZBkXTa3lvNpRZAV0DGL0dlhEc3IQqRFx27aJx+OsWrWKxx57zJPSdzw9HwsWLODWW29955wpScrtkqtXr7Yz6yY/+9nPuPzyS11IIoHCh6CiKMT1V1zMsbqXaO1NYCnf+1af3Y2dka/XRZKCsI8F18xhUnUJfpF0sH5lX7vJ/v37+Y//+A82bNiAZVluDl3XdQeMIDuHyZMnM35CLdOnT2fUqFHk5+eTm5uLz+fzoJyYCGyl0dyd5H+XvcOKt7c6RUGhDZ52EDbSNskO+V3CU6UUyk4PdNmpYpvxMYlJBNGsbDTRr6agkuh2HN3qTeXA0sqiDShEOv9WrgoK5aTvhVD4pCAS8DGitILamkqmTBhDUXaQaMTAL02kShUtU1YtHYd0dHTw+uuv8+ijj7JlyxZP86SmaUycOPGkschZU5L58+erO++8k8OHD7sV1L179/Lkk0/yj//4j27xTQoI6nDZBTUcOTKDxcvX0pWwsdMt5SfzFz1ADDZ+aTLv8ouYe/4YApqVwr2yHf5E2+bIkSP8+7//u4stGwqFKCsrY+rUqVRXVzN79myqqqqoqqoiGAw6NRZNG5S1SSGx0GmOKV57ayOvrHiXuPJjp5Z2YHZIIe0kfpngsgunkZsdRqqEc31oA4p0Qzft65Vg0O8mJZ1GeUF+dogbrriApSvX09TeTVN7D/GkmcrapSrvKaByYSukhFDQR3YoSHZWkJxIkKryYkZVllOQl01hbg4hn4YmFZqwEJhI5UUCTXcD19XV8eMf/5gnn3ySI0eOePhzhBBUVVXxta99bcRNN93EOVcSgKeeekqUlpaqdCwSi8V4/vnnmTNnjpsSTgeAUT/Mu/oS2mNJlq7cSK+lYZ3SiaqQmIQNxWUzp3DFRVOI+kkVC/twiJuamvjud7/LCy+8gGEYXHzxxSxatIgZM2a4ShEKhTytD/19aadImGpWxE99ew+vrVjL0lWb6LV9mNIYNKYSSiGUM0N/9SUzuWDKOPz9GKGEAiz7YzW5KCXomkh1ejtnlgCyQxqfuGw6M6ZPpbW9h/rWTjq6uoknTBKJBImEg7Lv9/sJ+n34/QbZkTDRSJBQ0EAqk6Ah8WkCTZlILKRIcZaowT2Kzs5O1q5dyw9/+ENee+01Ojo6BqxldnY2X/jCF3pvuummI6dyf/rZWsjbb7+d//qv/6K31zF59fX1/M+PfsyMGTMYMWJEqsCo0JSgIt/PrdfNpf5YHRv3HMdWusN/kUajT2WJ+uojDvauQYI508Zz41UXkhuSSJVEYbmWpqOjg2d++TTPPPMMhYWF3HfffSxYsIARI0bg8wVSv6YGQAVl1mpsBZZw0E/aYvDuzuMsW7mWtVv3ELd1lPAqiPQoSRK/SDJ7xnlcf9kFRAN2X+vGIP64UGdrQvMjRCjK4WEPBALO9WqpMlWq5SZsQChPoyw3i9qRWR4CZKWgo6M3o6inUoVEleJqcZomNQdOo180NHC9Dh48yKuvvsrPf/5zDh48OKBjIj2ReNNNN/GVr3wleKr3eNaU5PHHHxdXXnmlWrZ8Bcq2MU2TlStX8v3vf5+/+Zu/oaCgwFUUQwhGFgX49M3Xknzu92zacxQpfNhKdxoeMyb50qdzQLOYNW0CixZc5YyKqqTDbyH7gPN+97vf8cQTT1BQUMA3vvENLr/8csLhcD92KbeLiDT1UJpBPJ6A7phJU1sn2/ccYu3mHWzfd5zWmEkcP+oECPFCKWTqGi86r4ZP3XAlBaGBBc200qsTgGQMPXFglCKhMFmREDKF9YtIxxigKe9GU5l0FQKSxNyePdc69MMmP1HQb1kWPT09HDt2jDVr1vDUU0+xe/duFze4v0SjUe655x6+/e1vf6CjRz+bS/qZz3zm+nfeeed3nSn6r46ubn7xi18watQo7r77brcgJ1JMWefVFHHXwisRz/+ezXvrQAu6ipI+rTRMgjLJpdPHc/MNl1IQdLpR0wQwAkEikWDNqtX89389QVtLK1/+8pe56qqrCISC7jNxsLWE205iKjBtiCWgsS3JoeNN7N53mN37D3K8sZXG1nbiCbCEhok8Yat8+hrDWpI5Myey8BOzyA/bDv+GGOg2KAWm+ni0NzpolhbhYICscKDP3tonzmSdLNYazLXNDOwzO4NbW1vZtm0by5YtY/Xq1ezZs4dYLDZgoCr9Gfn5+dx3331885vf/MC2+awqyaJFi1657777ePLJJ0kknECqsbGRxx57jNzcXObPn++YbZxBpoAmGFtRwGfvWsCb63awbOU6mtu7Mc1UIUiXlBXmcPkls7ls+gQKIjJ1OpsgpJsj37BhA1//+tfZtWsXY8fUcPnll7vp58w4I2lBZ9ymobWTuoZWtu7cx/7DdRw4Wk9zRwxT6dhSx1YalvK5fzeo5UhlqDRlUZQb5PrL5zB7Ri0FYYlhJ08K/GDbH5ceYEerw6EAWeGQSxia2VaUvpdTIUnNLOSm/04pRSwWo6GhgdbWVnbv3s2GDRt46623qKuro7e3l2QyecI1k1IycuRIHnjggb1f+tKXxnyYW9TP9pr++Mc/FhMnTlTbtr8HSmHbji/5rW99i5EjRzJ9+vS+uRMFBgkq8gIsvGwaU2vK2LH3EIeP1SOlpLK8hAk1VVQU5RIyBIK0+5KCXVUOkMDjjz/O9u3bABhXO56SkpJUfONVkLfe3cS67UfZtOsA9S3ddPUmSCoQUgcRcNKYdpqB1qscfd/q+NO6MjFEgtrRJcy7ag6TxlQQ1lVfIkGdcM99vJQEm0gogN8/8LBoaGhg165dhMNhKisrCQaDnvmP9MRg/yJud3c3Bw4coKGhgaNHj7Jnzx62bdtGc3Mz9fX19PT0YJrm+/bVBYNBLrzwQh544IHowoUL2z/sHernYlkfeOCBJ//+H7766daWFte33LhxI1/72td49NFHmTZtGrqupwJ5E6kEuiaYUFVITWWxw8+nJLqwMYSJ3o+lVQiBaVvs2bOHr3zlK7z77ruYpo2mCXp6etyTxwsu4Pisuu4oIFKg6T6kUpgK0jOTLvmnGlha06TAJxU54SDjR49i9szzqB1dRsRQ+FUCqWx3iOxkMxJpKu3M+s/Q9LdsNCmIhILosi+zBU67zw9+8AO+973vIaUkLy+PrKwsZ6owVdAFp4vasiySySQdHR10d3fT2dlJa2urA65h2y4lXKYinUw5fD4f48eP5957793+4IMPTli+fPlHus1zoiSf/exn7/70pz/96eeff56eWA+ASyn30EMP8a//+q9MnDgRwzDc00qTGkKZSCnxpyPcFLOrAJTtzLEjnM/auXMnjz/+OGvXrnVz5Jal2Lp1KwcOHKC0tDSjhuzMUJ83topR1VVc09DKrn1H2XfoGEfrm2hsaqWzJ0EsaWMpC9tS7ty8rkkMXRL261SUFjFhTDWjqkopL8ojEtTxSafNRmBnTFk6itDd3ZOqL2T63fThKAvBkEsEZ0x6SgWGFOTmZCOEl24mkUiwYcMG2traHKyApqaTErb2tyYfJAWeLgQHg0GKioqYN28e3/nOd8SDDz54Wm5ZP1dr/eSTT4obbrhB/X7Ja5gppMdYLMbSpUtpbm7mb//2b7n66qszFs0hwvHwhqi+JGv6ZO7t7WXTpk08/PDDbNiwwVNlTaeef/GLX1BTU+POtqQVxZCQ4xeER+RSXZGLqSZhWg5tWVNrL/XNLXT1xDBNJztnGAYBn05WJEhJQS5Bn0hB2ZnowkaqOGIQ1ykWi7Fx40ZeeuklPv/5z7sAfidmJx66rpauCfJys+jfj9nV1UUa6yBtLU+XG5ke49U0jUAgQEVFBVOmTOHKK698/L777vvr73znO6f1LvVzucS//e1vxZQpU9SWLVtII08lkxbr12/k7//279j55zv4xLV/RllZGYZhpNwj2W/BnCDPNE06Ojp44YUX+MUvfsGOHTsGwNCkzfvixYsZOXIk999/P3l5eV63K5WClgL8qbx/tg8KIgHGVZSlUrR9n9fZHsNpo0ggpQKlUvPydsrEeQPytrY2nnvuOX75y1+Sk5PTL6qx3d+zUxyLQytG70tT2DgtKLpU5OZku/FY+vficacvLdMypGPNTLC4wQ6FgRhbwlUIn89HJBJh9OjRTJs2jdra2ofvvffeh9577z2eeeaZM3Lf+rle+K9//evyK1/5ir1n395U75LTfLh3/z7+328+yuL/fZlbb72VKVOmUFNTkyr6CY+FOXToEG+//TYvv/wya9asoafHceF0Xfe0I2QGlI899hjt7e3cc889VFdXe/qxHIYmPLl7PRWAKOHk+mVqWyTo7UMB8Rg56VGORCLBli1beO6553juuefo6elixowZJ3U9hlwIkomXlBKfJinIzXYwBpXXkmTeRygU4pZbbsGyLI4ePUpTUxM9PT10dXURi8VIJpPouk52djbhcJhIJEI4HKagoICsrCyKi4sZOXLk0oqKimvmz5+v9u/fz9KlS8/KfZ9zJZk/f7568smn/uKf/ulrPzx8+DC2nQ7QJN3dMdauXcuuXbsoKipi6tSpFBUVuU2GLS0tHDt2jJ07d3Lo0CE6OjpcpcjPz2fu3Lm8+eabrj+cuQlbW1v57//+b1avXs1dd93FnDlzKCsrIxQKpebwB25cKVPRaSqQ97atyAE1BMuy6OrqYu/evSxevJilS5dy6NAhenp6Ui6DnnFqOlbSVmBaQ3jcqt+8TsDwEQkGUhOlfWvV3NiEsmxPIe/nP//5CW3jSy+9FFiwYEHviQqB51L0oXARn/70nT96/vnnlz3yyCN73nvvPQ8afdpFaW9vZ9++fQN893ROPe3vplsPvvjFL/LQQw+Jz3/+8+rJJ5+ku7t7wPd2dHSwcuVKNm3aRHV1Nddeey2zZs3ioosucpUlberTPnWmK5BJ55ZZ7LIsi5aWFjZs2MAbb7zB8uXLOXr0qEvfnelGDBbIflxSwBIHwdJnaA6Kvuq7/oMHD3oSEP3rUv1lwYIFvUP1PvWhciE333zzXkDMnz9fLVu2bIC5zgRfOOHN6Dpjx9Rw991383df/XsB8MQTT4j7/uJ+9b+LX6apqWlAnJJuqd6yZQu7d+/mySefpLq6mvLyciZOnMjYsWMpLS0lLy+PnJwcDN3BfZKalqr8tmOaJj09PbS3t7Nu3TrWrl3Lnj17qKuro729nUQiMagLNZiCnJgIe4gZFOVQuEWzs/AZmucOTNNm7/59mHbfWldWVrJv3z4+jqIPtQtavHix+OpXv6qeffZZDh8+7LEqJ5J0+m/69Ol8+Ut/FZ2/cIGncPTjH/5I/OAHP/j5iy+++Ol0zGKapjtolVaWnp4eenp6OH78OJqmsXjxYnRdJxwOU1paSnFxMcGAA7Op6TqWZdHW1kF7u0Oc2draSldXl1uHybQahmEMKIClWywGux/xMUhwCSHIDofwaQMtYWNjo3sgaZpGdXU1b7zxxrCSnC559NFHBcD999+v3nnnHQ4cOEBPT4/HvUmnAQsLC5k0aRILFix48fOf//yNK1asOGFtBrgb4Ktf/apatWoVe/bsoampJaUwpgcOM7154/Ek3d0xGhsbPa5WGlu4/6v/JgoEAtTU1DBnzhxeeuklD8+9UgrbtJApLkeU026u67rjitlDoAv4JPwpmoCcSBifkclIrDDNhAdoQUrJiBEj+LiKPpQv7kc/+pEA+N73vrdh165dUxsbG2ltbUUIQXl5OWVlZUyYMOH6RYsWvfLaa699YCV84YUXCtev39iwfft2tm3bwqFDh9zqbh97sPDEG5lWoL/blAnF6fP5qKqq4rrrruNb3/qW2Lx5M7W1terYsWPu33msmRCksRIM2Te5xxAfvsrJDuOTqcyf7WhKmjMkc30KCwvfGVaSMygPPPDAtDPxuTfeeGNj/xDg+eefH/3uu+/u2bFjBy0tLTQ3N9PY2OjOsp+oy1TXdfLz8ykvL6eqqorbbrstunDhwnYv4Jk9wC3xBfxk5WQ7kDcImjsSCF1zP/ece1392mjSyiukQDckOVlBYj29JLsSSOEAzx0/fpzGxkZPMiUQCAwryZ+KpBMIme89/fTT17W2tv5VZ2fnVS0tLW5PETgDR/n5+ZSUlPz1Pffc8/jhw4dZs2YNzz777Pt+V/+imjPZZ6FpYsjVSvqjWDqJEkk0JwtNeLt3m5ubOXLkiAe2JxgMrhxWkj9hWbRo0SvAK6cjaZq56U4UuEs1eOFuqGW3/IZOOBTAth02ZYFECOUmMtLtKHl5edx5552/+rg+fzmsAufmNE5bkv69ZdipVLewh7CCOPMyPl0jmh3OGFVzYrX6+np3dFYIQW5u7sf6uQ0rydlc7H6DRyeyJB8HYDqBTU52hFDATx//l+1yu6SVXynVr0dtWEmG5WS+ra4PsCQeqJuPk5Iom8L8XAy3SNI3SZiGj0ofDB6Uy2ElGZb3U5JMBTBN09OqojKUZKgqikq5WhJFXm52CvihT0Fs2+b48eOezNawkgzLKUv/xsn+tZf0iazpwsX9GmoK0jd/Y1KYG8W2LU+Bt6enx9Mir2kaVVVVw0oyLB/O3RqcermPF1ANgd6UwVK/YOPXJLk5EaQQfaSuSlFfX097e7vnYBg9evT3h5VkWD5STJKu6DszWw7cpxgizVsnasIMh/xEIxGXaiF9P3V1dZ7mVCkl999//xeHlWRYTknC4fAAV8s0Ta9rJew+7OEhVifpa79RREI+crKCHmVOW5LMtPapQAkNK8mwuJKfn+/ZNKZpeqr3ABoCv8/A0KQD0TqEKopu7IEiHAwgheWlvBCC9vZ2T9Cel5c3rCTDcuqSCaUDDqLIwGEwhd/w4fP5hob1UN5XWlFyIkECKe5LpRQ2iu5YD4cPH3bT2lJKKisrh5VkWE5d+hfV0t2ynuAY8PsN/IbutKcMQZdLKpviwjx8hkgBXDuK393dzaFDhzwTiR/nFvlhJTlHMUn/QLi/JRFCEPT78RkGH5I18sy4WsI721KUH8WviwyqXUU81ktLS4s78y+ERnFx8bCSDMupSyQSOTIYIEWmry+VjS9FzzxUOoEHZLiURTTLyWxJ5bWM7e3tLnqMz6dTUVHROKwkw3LKEgqFlvV/L+1uZW7EgM9PwPAhhQNM5BzW6pwE8UqA7fleh6ItOyuMJvoaG5Vyun/Tczdpy1lcXPzZYSUZllOWYDD4Vn9LkoYB9VgNYSO1oYG/NeAabEU0O4vsrBAyQ3ls2+bAgQNuIVEIyMoKc8cdd7w4rCTD8oGUpP8GbG1t9VbdU31QgYDP4XcSdioWcHBUxFkO5pVwcPqVUinCJIvcnGyyI46SyAx4p+PHj7s1EiEk2dnRP4nnNqwkZ1FuueWW7f0tSUdHB5ZleRDmNSArEkbTzn3vVn/ke4FJXnYWAZ9BuuSTnkrs39j4p1AjgeHJxLMuWVlZxGIxd2O1tbW5SDBCCLJzstEsSVYoiIZApjgaM2MET1Dtcqx4UU3c9z+inulpVBghEFgo2yI3GiE3x0+W5k8pEnR2ttPQ0OBpdqyoqBi2JMPywSWNZJ8+odPQrJno65qESDiMNgSeTn8qBJ8GxYV5SLzA4W1tbR64JCklZWVlw0oyLB9cCgsLPa0p8XjctSyZFiAaDqMLwMXb7797JSiHq1EhHQuSyX8iTi9ml0xRgEeCPqory5FauglToZRFQ0PDAEtSXFy8d1hJhuUDS/9572QySVNTkyeLJIGC/FyMU20OPCvz8AKhFNGwj7KCqKdny7Ztjhw5Qnd3t8eSfFiOwmEl+T8uoVDIUxNJJpMcOHDA0+QoJeRFswgH/QhApqyGh7Y6bTk8CnIG0l6Z36kUVeXF5GQF0DIQ5Ht7e9mwYYOne+D9ALKHlWRYTiiBQMCjJJZlUVdX53lPAsGATjQnzKknuM5QXlhkdigrakZWkBuWHmCy3t5e9uzZQzKZdLuBo9HosJIMy4eTESNGZHBB4roq/Ykzw35JSWHUgT5NWQyndf7E7tCZw6NXYNtkh/xMHFtNUMdtR1FK0dTUxL59+9zkg5SSiRPPG1aSYfnQSvJwfyU5duwYafIaIQQCCPlhRGkhPqlcOOBzMfOulI3ARiNBSX4OY6rKMESfOtq2za5du9i9e7cHsXH69OnDSjIsH07uvffehzLHeC3LYseOHdTV1blxiVQQ1GFCzUhCASPFTa9Oqih9jIun2dsSEqlsgjrMmFpLdjitIMp1tZYtW+bp2QqFQowbV3P9sJIMy4eWTNSUdKW6rq7Ok+EyBIwaUcqoESVIO+EBWzjLtgRN2FSVRJlWO8ppuMwI2uvr61m5cqVnhqS8vDwNDTusJMPy4SQrKyvDIkg6Orp4448rSJjJVHThICLm5Whcfsl0snwgVPJ9H6Q8AwoisPFJi8svPI9Rpdn4ZJ+imqbJmnfe5uDhQ64V1CTUjBn1J/W8hpXkHMikSZM8BcVkMsnq1as99RKhFD4J542tZOzIErR+tZCzEZ9oysYnLGpHljLr/In4pelprmxqauKll17yQAj5fD7mz5//8LCSDMtHkmnTpmW4XDa2bbJ/7z7WvbvWpb9TqeC4LM/H5RdNcwL4TA5JW3hrGP1jFKGwP0K7sFAKYScZWRDhxusuJyekI5VNmjHFNBOsXPkmbyxbTjKe6HO1Kiq5+557HxpWkmH5SFJeXv79zAxXOgB+++23aW1t7Xs4CoIaXDxtElNrq5F2DMHpo68ePL5RaMpC2jGKsg1uvO5SxlUWomOlEgh9scivfvUr2tra+uIow+Daa6/9k3tew0pyDuT+++//4ogRIwbgAu/cudPLEIVCU1CYI7jpmjlU5geQdtLJLPWrtvdHM5FKIN+neSsTc9j5rxODSCvG2NIsPnPrtVw4sZKwbiLpq+P09PTwm9+8yJtvrnSRUYQQlJSUcMUVVwSHlWRYTouMGzfOE5dYlsXGjRtZs2aNB9xN4GS6zp9Qyp03/hmFER3Njntcr7R7psT7xyre/69SdRALzU5gqDh5Qbh05gQ+d9dNzJxQRUi30Ei6ViSZTPLmm2/yn//5nzQ1NQ2wIkOZj/1Dx2bD2/XcyJ133vnQqlWrPNQLyWSSWCzGZZddRk5OjnPSyxT1moDy0gKk1Dl85AgJU2E5WtEXh9A3CS/6uVV9yqFcy6NpILDwCZOQMJlQVcinrpvNdZdOpzwviE8k3ThECIFlWezbt49//dd/ZcOGDZ5RgzlzAAAFb0lEQVQBq5qacbz22u/Fn+KzGlaScyTLly9/uLy8/KHMzFC6xSMQCDBlyhRCoZBrTaQQ6BKqKsupKK2gvr6e7q4ubDPpqIcAgRjYnGI7I7YaNhILDRMNE5+wCBmK0vwIMyaN4eZrL+P6Ky5ibEUBEcPCwEIqi5SOYts2u3fv5utf/zrLly/3WLtoNMpf/uUXWbr0Dw8PK8mwnFa5/fbbH9q8ebNnxj2RSHDw4EHGjh1LZWVlBpKjw/Ee0KGiNIcx1VUENJvOtibMeBxlWYDt+M+C1OZWjnLYSaRtoguTbL+gPC/EtHGVXDN7GvMun8nc88dTVZxNlqHQhZmyHrZrn0wzyXvvbeexxx5jyZIlLtUbOCnfq6++mu9///8Tf6rPSQxv1XMrU6ZMUZs3b/bOk0jJmDFjePTRR7nqqquIRCKINMk7CoUgqaDXgsYOxebte3lv9wEaW9tp7+qlq6uLWDxBJBQmNxohPzeHaCRMViTIqIpSRo4oxsDEryt0LHTSSmEPyH51dXWwevVqHnnkG+zatctNUaevc+7cubzxxht/0vtoWEnOsTz++OMN//zP/1zY1dXled8wDKZNm8bf//3fM3PmzAFzKAqJLSQKjYQtSJoW3bEk8WSCWDyJaVr4fAZFBXmEAn5CAWcsWBOgy9QEpEgx/WbEKmnXKh6Pc/jwYf7nf/6HF154gf3792Pbdh9lnZSMHj2af//3x6ILF85vH36Sw3JG5eabb1Y+n09lxN0KUJqmqXHjxql/+Id/UJs2bVINDQ2qublZtbS0qJaWFtXc3Oy+mppbVVNzu2poaVf1zW2qvqldNTR3qIStlGUrZVlK2badepkZ/+57maapuru71Y4dO9S3vvUtNXnyZOX3+5VIz+mmkmhSSjVx4kT1q1/9as7/heczbEmGiMyePVutWbPGk+1KZ46i0SjXXHMNt9xyCzPOn04kEkHqRsolyiwuSs/olfO3OW6VfDAxbYdtq6ujkwMHDvDKK6+wfPlytmzaTGu7A5yH6DM0wWCYadOmsWrVW/9n9s6wkgwhufDCC9W6desGKAo4LFlFRUXMn/dJrrvuOqaePx2/359ixRIexUhTIUgpiWbnuP8/jdBi2zbJZJLOzk72HzzApk2bWLrkD7z99ts0NDQ4ZKe2F9xUSkkkEuG22xbxwx/+9/+pfTOsJENMZs2apd555x1PgJwpwWCQoqIiJk+ezLXXXsv0aedTWFiIZjjMvlLXHJZf5UwJBoNhLMsinnS4UDrbO9i9ezfr169n7dq1HDlyhPr6erq6ugb9TiEE4XAWEyfWsmjRou0PPvjghP9rz2RYSYagzJs3T61YscIzyNR/40opMQyD0uISpkyZQkFRIX6/n+xoDgUFBWRHwrS1tVFf30hzczMtba3U19fTcLye48ePk0wmsW17IA6xaznAMPyMHzuOhQtv4qGv/8vwXhmWoSWPPPKIGj169ICAPjOITv+saZrSdakMQ1OhUEjl5OSogrx8lZOVrfx+v9J1XUkp3Vf/z8h8GYah8vPz1cyZM9Xf/d3fqeEnMSxDWhYvXixuu+02VVRUpAzDOOHmFkIoIfq9l3pxkpcQTqZK13UVDAZVZWWl+sxnPqN++tOffnV49YflYyf33nuvmjRpkgqFQsowDCWlPKkCnOglpVSGYahgMKiqqqrURRddpG6//Xb1s5/97MvDqzwck/xJyDe/+U116NAhVq9ezaFDh+jp6XFR6QeLXYQQaJqGz+cjGAxSWVnJlClTGDt2bO9XvvKV4PCKDivJn7z85je/qdi9e/f/v8efPn1i+Pr1K8OfP3/gmQZyaon6ioyMjMjRkBoFo2AUjIJRMAoGCgAAsTN794fsyfcAAAAASUVORK5CYII=;" vertex="1" parent="1">
          <mxGeometry x="650" y="149.6" width="42.77" height="43.4" as="geometry" />
        </mxCell>
        <mxCell id="jbXzSBFCxgIyS97Zw1_5-21" value="&lt;h1&gt;&lt;font face=&quot;Tahoma&quot; style=&quot;font-size: 16px;&quot;&gt;AWS SQS&lt;/font&gt;&lt;/h1&gt;" style="text;strokeColor=none;align=center;fillColor=none;html=1;verticalAlign=middle;whiteSpace=wrap;rounded=0;" vertex="1" parent="1">
          <mxGeometry x="295" y="193" width="100" height="30" as="geometry" />
        </mxCell>
      </root>
    </mxGraphModel>
  </diagram>
</mxfile>
